<svg xmlns="http://www.w3.org/2000/svg" xmlns:xlink="http://www.w3.org/1999/xlink" width="50" zoomAndPan="magnify" viewBox="0 0 37.5 37.499999" height="50" preserveAspectRatio="xMidYMid meet" version="1.0"><defs><clipPath id="b33df8af01"><path d="M 1.851562 4 L 10 4 L 10 24 L 1.851562 24 Z M 1.851562 4 " clip-rule="nonzero"/></clipPath><clipPath id="c068cf6997"><path d="M 9 32 L 27 32 L 27 34.9375 L 9 34.9375 Z M 9 32 " clip-rule="nonzero"/></clipPath><clipPath id="2d468094b5"><path d="M 29 5 L 35.15625 5 L 35.15625 22 L 29 22 Z M 29 5 " clip-rule="nonzero"/></clipPath><clipPath id="9390ffc8f9"><path d="M 10 2.371094 L 28 2.371094 L 28 14 L 10 14 Z M 10 2.371094 " clip-rule="nonzero"/></clipPath></defs><g clip-path="url(#b33df8af01)"><path fill="#3b50a8" d="M 2.828125 23.4375 C 2.753906 23.4375 2.6875 23.390625 2.664062 23.316406 C 2.464844 22.703125 2.300781 22.074219 2.175781 21.445312 C 2.15625 21.347656 2.21875 21.257812 2.3125 21.238281 C 2.40625 21.21875 2.496094 21.28125 2.515625 21.375 C 2.640625 21.992188 2.800781 22.609375 2.992188 23.207031 C 3.023438 23.300781 2.972656 23.398438 2.882812 23.429688 C 2.863281 23.433594 2.847656 23.4375 2.828125 23.4375 Z M 2.082031 19.6875 C 1.992188 19.6875 1.914062 19.617188 1.90625 19.527344 C 1.871094 19.070312 1.851562 18.601562 1.851562 18.140625 C 1.851562 17.960938 1.855469 17.773438 1.859375 17.59375 C 1.863281 17.496094 1.941406 17.421875 2.039062 17.421875 C 2.132812 17.425781 2.210938 17.507812 2.207031 17.605469 C 2.199219 17.78125 2.199219 17.964844 2.199219 18.140625 C 2.199219 18.59375 2.214844 19.050781 2.253906 19.5 C 2.261719 19.59375 2.191406 19.679688 2.09375 19.6875 C 2.089844 19.6875 2.085938 19.6875 2.082031 19.6875 Z M 2.203125 15.863281 C 2.195312 15.863281 2.1875 15.863281 2.175781 15.863281 C 2.082031 15.847656 2.015625 15.761719 2.03125 15.664062 C 2.125 15.027344 2.253906 14.390625 2.417969 13.769531 C 2.441406 13.675781 2.539062 13.621094 2.628906 13.644531 C 2.722656 13.671875 2.777344 13.765625 2.753906 13.859375 C 2.59375 14.464844 2.464844 15.089844 2.375 15.714844 C 2.359375 15.800781 2.289062 15.863281 2.203125 15.863281 Z M 3.179688 12.171875 C 3.160156 12.171875 3.136719 12.167969 3.117188 12.160156 C 3.027344 12.121094 2.984375 12.019531 3.019531 11.929688 C 3.253906 11.332031 3.523438 10.742188 3.824219 10.175781 C 3.871094 10.089844 3.976562 10.058594 4.0625 10.105469 C 4.144531 10.148438 4.175781 10.257812 4.132812 10.339844 C 3.835938 10.894531 3.570312 11.472656 3.339844 12.058594 C 3.3125 12.128906 3.25 12.171875 3.179688 12.171875 Z M 4.972656 8.800781 C 4.9375 8.800781 4.902344 8.789062 4.871094 8.769531 C 4.792969 8.714844 4.773438 8.605469 4.828125 8.527344 C 5.191406 8 5.59375 7.488281 6.015625 7.003906 C 6.078125 6.933594 6.1875 6.925781 6.257812 6.988281 C 6.332031 7.054688 6.335938 7.164062 6.273438 7.234375 C 5.859375 7.707031 5.46875 8.210938 5.113281 8.726562 C 5.078125 8.773438 5.027344 8.800781 4.972656 8.800781 Z M 7.480469 5.933594 C 7.433594 5.933594 7.386719 5.914062 7.351562 5.875 C 7.285156 5.804688 7.292969 5.695312 7.363281 5.628906 C 7.835938 5.199219 8.339844 4.792969 8.859375 4.417969 C 8.9375 4.363281 9.046875 4.382812 9.101562 4.460938 C 9.15625 4.539062 9.140625 4.648438 9.0625 4.703125 C 8.550781 5.070312 8.058594 5.46875 7.59375 5.890625 C 7.5625 5.917969 7.519531 5.933594 7.480469 5.933594 Z M 7.480469 5.933594 " fill-opacity="1" fill-rule="nonzero"/></g><g clip-path="url(#c068cf6997)"><path fill="#3b50a8" d="M 18.527344 34.929688 C 18.003906 34.929688 17.472656 34.90625 16.949219 34.855469 C 16.855469 34.847656 16.785156 34.761719 16.792969 34.667969 C 16.800781 34.570312 16.886719 34.5 16.980469 34.507812 C 17.496094 34.558594 18.015625 34.582031 18.527344 34.582031 C 18.636719 34.582031 18.75 34.582031 18.859375 34.578125 C 18.859375 34.578125 18.863281 34.578125 18.863281 34.578125 C 18.957031 34.578125 19.035156 34.652344 19.035156 34.75 C 19.039062 34.847656 18.960938 34.925781 18.867188 34.929688 C 18.753906 34.929688 18.640625 34.929688 18.527344 34.929688 Z M 20.753906 34.777344 C 20.667969 34.777344 20.59375 34.714844 20.582031 34.628906 C 20.570312 34.53125 20.636719 34.445312 20.730469 34.429688 C 21.347656 34.34375 21.96875 34.222656 22.574219 34.066406 C 22.664062 34.039062 22.761719 34.097656 22.785156 34.191406 C 22.808594 34.285156 22.75 34.378906 22.660156 34.402344 C 22.042969 34.5625 21.410156 34.691406 20.777344 34.777344 C 20.769531 34.777344 20.761719 34.777344 20.753906 34.777344 Z M 15.089844 34.570312 C 15.078125 34.570312 15.066406 34.570312 15.054688 34.566406 C 14.429688 34.433594 13.804688 34.261719 13.203125 34.058594 C 13.113281 34.027344 13.0625 33.929688 13.09375 33.835938 C 13.125 33.746094 13.222656 33.695312 13.3125 33.726562 C 13.902344 33.925781 14.515625 34.09375 15.125 34.222656 C 15.21875 34.242188 15.277344 34.335938 15.257812 34.429688 C 15.242188 34.511719 15.171875 34.570312 15.089844 34.570312 Z M 24.421875 33.824219 C 24.355469 33.824219 24.289062 33.78125 24.261719 33.710938 C 24.226562 33.621094 24.273438 33.519531 24.359375 33.488281 C 24.941406 33.261719 25.519531 32.996094 26.070312 32.703125 C 26.15625 32.660156 26.261719 32.691406 26.304688 32.777344 C 26.347656 32.863281 26.316406 32.96875 26.230469 33.011719 C 25.667969 33.3125 25.078125 33.582031 24.484375 33.8125 C 24.464844 33.820312 24.445312 33.824219 24.421875 33.824219 Z M 11.496094 33.355469 C 11.472656 33.355469 11.445312 33.351562 11.421875 33.339844 C 10.847656 33.066406 10.277344 32.753906 9.738281 32.414062 C 9.65625 32.363281 9.628906 32.257812 9.679688 32.175781 C 9.730469 32.09375 9.839844 32.066406 9.917969 32.117188 C 10.449219 32.449219 11.003906 32.753906 11.570312 33.023438 C 11.65625 33.0625 11.695312 33.167969 11.652344 33.253906 C 11.625 33.316406 11.5625 33.355469 11.496094 33.355469 Z M 11.496094 33.355469 " fill-opacity="1" fill-rule="nonzero"/></g><g clip-path="url(#2d468094b5)"><path fill="#3b50a8" d="M 34.640625 21.683594 C 34.628906 21.683594 34.617188 21.683594 34.605469 21.679688 C 34.511719 21.660156 34.453125 21.570312 34.472656 21.476562 C 34.582031 20.929688 34.667969 20.371094 34.726562 19.816406 C 34.734375 19.746094 34.738281 19.671875 34.746094 19.597656 C 34.753906 19.503906 34.839844 19.433594 34.933594 19.441406 C 35.03125 19.449219 35.101562 19.535156 35.089844 19.632812 C 35.085938 19.703125 35.078125 19.777344 35.070312 19.851562 C 35.011719 20.421875 34.925781 20.988281 34.8125 21.546875 C 34.792969 21.628906 34.722656 21.683594 34.640625 21.683594 Z M 34.980469 17.875 C 34.886719 17.875 34.8125 17.800781 34.808594 17.703125 C 34.792969 17.074219 34.742188 16.4375 34.65625 15.816406 C 34.640625 15.722656 34.707031 15.632812 34.804688 15.621094 C 34.898438 15.605469 34.984375 15.671875 35 15.769531 C 35.085938 16.402344 35.140625 17.054688 35.15625 17.695312 C 35.15625 17.792969 35.082031 17.875 34.984375 17.875 C 34.984375 17.875 34.984375 17.875 34.980469 17.875 Z M 34.453125 14.089844 C 34.378906 14.089844 34.308594 14.039062 34.285156 13.960938 C 34.128906 13.351562 33.933594 12.742188 33.707031 12.15625 C 33.671875 12.066406 33.71875 11.964844 33.804688 11.929688 C 33.894531 11.894531 33.996094 11.941406 34.03125 12.03125 C 34.261719 12.628906 34.460938 13.25 34.621094 13.871094 C 34.644531 13.964844 34.589844 14.058594 34.5 14.085938 C 34.484375 14.085938 34.46875 14.089844 34.453125 14.089844 Z M 33.078125 10.527344 C 33.015625 10.527344 32.957031 10.492188 32.925781 10.433594 C 32.632812 9.878906 32.308594 9.332031 31.953125 8.8125 C 31.898438 8.734375 31.917969 8.625 32 8.570312 C 32.078125 8.515625 32.183594 8.535156 32.238281 8.613281 C 32.601562 9.144531 32.933594 9.703125 33.230469 10.269531 C 33.277344 10.355469 33.246094 10.460938 33.160156 10.507812 C 33.132812 10.519531 33.105469 10.527344 33.078125 10.527344 Z M 30.933594 7.375 C 30.886719 7.375 30.839844 7.355469 30.804688 7.3125 C 30.394531 6.839844 29.953125 6.382812 29.492188 5.957031 C 29.421875 5.894531 29.417969 5.78125 29.480469 5.710938 C 29.546875 5.640625 29.65625 5.636719 29.726562 5.699219 C 30.195312 6.132812 30.648438 6.597656 31.066406 7.085938 C 31.128906 7.15625 31.121094 7.269531 31.046875 7.332031 C 31.015625 7.359375 30.976562 7.375 30.933594 7.375 Z M 30.933594 7.375 " fill-opacity="1" fill-rule="nonzero"/></g><path fill="#d2f9d9" d="M 30.625 18.121094 C 30.625 18.925781 30.546875 19.71875 30.394531 20.507812 C 30.238281 21.296875 30.007812 22.0625 29.703125 22.804688 C 29.398438 23.546875 29.027344 24.25 28.582031 24.917969 C 28.140625 25.585938 27.640625 26.203125 27.074219 26.773438 C 26.511719 27.339844 25.902344 27.847656 25.238281 28.292969 C 24.578125 28.738281 23.878906 29.117188 23.144531 29.421875 C 22.410156 29.730469 21.652344 29.964844 20.871094 30.121094 C 20.089844 30.277344 19.300781 30.355469 18.503906 30.355469 C 17.710938 30.355469 16.921875 30.277344 16.140625 30.121094 C 15.359375 29.964844 14.601562 29.730469 13.867188 29.421875 C 13.132812 29.117188 12.433594 28.738281 11.773438 28.292969 C 11.109375 27.847656 10.5 27.339844 9.933594 26.773438 C 9.371094 26.203125 8.871094 25.585938 8.429688 24.917969 C 7.984375 24.25 7.613281 23.546875 7.308594 22.804688 C 7.003906 22.0625 6.773438 21.296875 6.617188 20.507812 C 6.464844 19.71875 6.386719 18.925781 6.386719 18.121094 C 6.386719 17.320312 6.464844 16.523438 6.617188 15.734375 C 6.773438 14.949219 7.003906 14.183594 7.308594 13.441406 C 7.613281 12.699219 7.984375 11.992188 8.429688 11.324219 C 8.871094 10.65625 9.371094 10.039062 9.933594 9.472656 C 10.5 8.902344 11.109375 8.398438 11.773438 7.949219 C 12.433594 7.503906 13.132812 7.128906 13.867188 6.820312 C 14.601562 6.511719 15.359375 6.28125 16.140625 6.125 C 16.921875 5.96875 17.710938 5.886719 18.503906 5.886719 C 19.300781 5.886719 20.089844 5.96875 20.871094 6.125 C 21.652344 6.28125 22.410156 6.511719 23.144531 6.820312 C 23.878906 7.128906 24.578125 7.503906 25.238281 7.949219 C 25.902344 8.398438 26.511719 8.902344 27.074219 9.472656 C 27.640625 10.039062 28.140625 10.65625 28.582031 11.324219 C 29.027344 11.992188 29.398438 12.699219 29.703125 13.441406 C 30.007812 14.183594 30.238281 14.949219 30.394531 15.734375 C 30.546875 16.523438 30.625 17.320312 30.625 18.121094 Z M 30.625 18.121094 " fill-opacity="1" fill-rule="nonzero"/><path fill="#ffffff" d="M 25.167969 19.667969 C 25.167969 19.3125 24.878906 19.023438 24.527344 19.023438 C 24.171875 19.023438 23.886719 19.3125 23.886719 19.667969 C 23.886719 20.027344 24.171875 20.316406 24.527344 20.316406 C 24.878906 20.316406 25.167969 20.027344 25.167969 19.667969 Z M 25.167969 19.667969 " fill-opacity="1" fill-rule="nonzero"/><path fill="#ffe261" d="M 30.304688 25.679688 C 30.324219 25.664062 30.347656 25.65625 30.371094 25.65625 L 31.785156 25.65625 L 31.785156 21.628906 L 30.304688 21.628906 Z M 30.304688 25.679688 " fill-opacity="1" fill-rule="nonzero"/><path fill="#ffffff" d="M 30.265625 27.0625 C 30.265625 26.707031 29.976562 26.414062 29.621094 26.414062 C 29.269531 26.414062 28.980469 26.707031 28.980469 27.0625 C 28.980469 27.417969 29.269531 27.710938 29.621094 27.710938 C 29.976562 27.710938 30.265625 27.417969 30.265625 27.0625 Z M 30.265625 27.0625 " fill-opacity="1" fill-rule="nonzero"/><path fill="#ffffff" d="M 27.839844 29.222656 L 29.097656 29.222656 C 28.671875 28.585938 28.082031 27.609375 28.082031 27.078125 C 28.082031 26.226562 28.765625 25.539062 29.609375 25.539062 C 29.777344 25.539062 29.9375 25.566406 30.089844 25.617188 L 30.089844 21.519531 C 30.089844 21.460938 30.140625 21.410156 30.199219 21.410156 L 31.785156 21.410156 L 31.785156 19.496094 L 30.316406 19.496094 C 30.304688 19.496094 30.289062 19.496094 30.277344 19.492188 C 30.273438 19.488281 30.269531 19.488281 30.265625 19.484375 C 30.257812 19.480469 30.253906 19.476562 30.246094 19.46875 C 30.242188 19.46875 30.238281 19.464844 30.234375 19.460938 C 30.230469 19.453125 30.226562 19.445312 30.222656 19.4375 C 30.21875 19.433594 30.21875 19.433594 30.214844 19.429688 C 30.214844 19.425781 30.214844 19.425781 30.214844 19.421875 L 29.398438 16.933594 L 27.503906 16.933594 L 28.285156 19.355469 C 28.289062 19.359375 28.289062 19.367188 28.289062 19.371094 C 28.289062 19.378906 28.292969 19.382812 28.292969 19.390625 C 28.292969 19.390625 28.292969 19.390625 28.292969 19.394531 C 28.289062 19.402344 28.289062 19.410156 28.285156 19.417969 C 28.285156 19.421875 28.285156 19.429688 28.28125 19.433594 C 28.277344 19.441406 28.273438 19.445312 28.269531 19.453125 C 28.265625 19.457031 28.261719 19.464844 28.257812 19.46875 C 28.253906 19.472656 28.246094 19.476562 28.242188 19.480469 C 28.234375 19.484375 28.230469 19.488281 28.222656 19.492188 C 28.21875 19.492188 28.21875 19.492188 28.21875 19.492188 C 28.207031 19.496094 28.195312 19.496094 28.183594 19.496094 L 26.023438 19.496094 C 26.03125 19.558594 26.039062 19.621094 26.039062 19.683594 C 26.039062 20.101562 25.679688 20.789062 25.316406 21.371094 L 28.191406 21.371094 C 28.25 21.371094 28.300781 21.421875 28.300781 21.480469 C 28.300781 21.492188 28.296875 21.507812 28.292969 21.515625 C 28.292969 21.519531 28.292969 21.519531 28.292969 21.519531 L 28.292969 25.765625 C 28.292969 25.792969 28.28125 25.820312 28.261719 25.839844 L 23.96875 30.199219 L 26.847656 30.199219 L 27.761719 29.257812 C 27.78125 29.234375 27.808594 29.222656 27.839844 29.222656 Z M 27.839844 29.222656 " fill-opacity="1" fill-rule="nonzero"/><path fill="#ffffff" d="M 22.988281 19.683594 C 22.988281 19.621094 22.992188 19.5625 23 19.503906 L 19.714844 19.519531 L 19.714844 21.390625 L 23.707031 21.371094 C 23.347656 20.789062 22.988281 20.101562 22.988281 19.683594 Z M 22.988281 19.683594 " fill-opacity="1" fill-rule="nonzero"/><path fill="#ffffff" d="M 30.917969 27.078125 C 30.917969 26.347656 30.332031 25.753906 29.609375 25.753906 C 28.886719 25.753906 28.300781 26.347656 28.300781 27.078125 C 28.300781 27.710938 29.304688 29.160156 29.609375 29.582031 C 29.914062 29.160156 30.917969 27.710938 30.917969 27.078125 Z M 28.765625 27.0625 C 28.765625 26.585938 29.152344 26.199219 29.621094 26.199219 C 30.09375 26.199219 30.480469 26.585938 30.480469 27.0625 C 30.480469 27.539062 30.09375 27.925781 29.621094 27.925781 C 29.152344 27.925781 28.765625 27.539062 28.765625 27.0625 Z M 28.765625 27.0625 " fill-opacity="1" fill-rule="nonzero"/><path fill="#ffffff" d="M 25.820312 19.683594 C 25.820312 18.953125 25.234375 18.359375 24.511719 18.359375 C 23.789062 18.359375 23.203125 18.953125 23.203125 19.683594 C 23.203125 20.316406 24.207031 21.765625 24.511719 22.1875 C 24.816406 21.765625 25.820312 20.316406 25.820312 19.683594 Z M 23.671875 19.667969 C 23.671875 19.191406 24.054688 18.804688 24.527344 18.804688 C 25 18.804688 25.382812 19.191406 25.382812 19.667969 C 25.382812 20.144531 25 20.535156 24.527344 20.535156 C 24.054688 20.535156 23.671875 20.144531 23.671875 19.667969 Z M 23.671875 19.667969 " fill-opacity="1" fill-rule="nonzero"/><path fill="#ffe261" d="M 23.035156 19.285156 C 23.039062 19.285156 23.039062 19.285156 23.039062 19.285156 C 23.214844 18.628906 23.808594 18.144531 24.511719 18.144531 C 25.214844 18.144531 25.808594 18.625 25.984375 19.28125 L 28.035156 19.28125 L 27.277344 16.933594 L 19.996094 16.933594 C 19.839844 16.933594 19.714844 17.0625 19.714844 17.21875 L 19.714844 19.300781 Z M 23.035156 19.285156 " fill-opacity="1" fill-rule="nonzero"/><path fill="#8befa0" d="M 29.972656 29.441406 C 29.820312 29.664062 29.710938 29.808594 29.695312 29.832031 C 29.675781 29.859375 29.640625 29.875 29.609375 29.875 C 29.574219 29.875 29.542969 29.859375 29.523438 29.832031 C 29.507812 29.808594 29.394531 29.65625 29.234375 29.429688 C 29.222656 29.4375 29.207031 29.441406 29.1875 29.441406 L 27.882812 29.441406 L 27.148438 30.199219 L 31.5 30.199219 C 31.65625 30.199219 31.785156 30.070312 31.785156 29.914062 L 31.785156 29.441406 Z M 29.972656 29.441406 " fill-opacity="1" fill-rule="nonzero"/><path fill="#8befa0" d="M 28.078125 25.71875 L 28.078125 21.589844 L 25.226562 21.589844 C 25.214844 21.589844 25.199219 21.585938 25.1875 21.582031 C 24.890625 22.046875 24.625 22.402344 24.597656 22.4375 C 24.578125 22.464844 24.546875 22.480469 24.511719 22.480469 C 24.476562 22.480469 24.445312 22.464844 24.425781 22.4375 C 24.402344 22.402344 24.132812 22.039062 23.832031 21.574219 C 23.816406 21.582031 23.796875 21.589844 23.777344 21.589844 L 19.714844 21.605469 L 19.714844 29.914062 C 19.714844 30.070312 19.839844 30.199219 19.996094 30.199219 L 23.664062 30.199219 Z M 28.078125 25.71875 " fill-opacity="1" fill-rule="nonzero"/><path fill="#ffe261" d="M 30.394531 19.28125 L 31.785156 19.28125 L 31.785156 17.21875 C 31.785156 17.0625 31.65625 16.933594 31.5 16.933594 L 29.625 16.933594 Z M 30.394531 19.28125 " fill-opacity="1" fill-rule="nonzero"/><path fill="#ffffff" d="M 31.785156 25.875 L 30.558594 25.875 C 30.90625 26.15625 31.132812 26.589844 31.132812 27.078125 C 31.132812 27.609375 30.546875 28.585938 30.121094 29.222656 L 31.785156 29.222656 Z M 31.785156 25.875 " fill-opacity="1" fill-rule="nonzero"/><path fill="#3b50a8" d="M 31.535156 30.507812 L 20.03125 30.507812 C 19.71875 30.507812 19.464844 30.253906 19.464844 29.9375 L 19.464844 17.242188 C 19.464844 16.929688 19.71875 16.671875 20.03125 16.671875 L 31.535156 16.671875 C 31.84375 16.671875 32.097656 16.929688 32.097656 17.242188 L 32.097656 29.9375 C 32.097656 30.253906 31.84375 30.507812 31.535156 30.507812 Z M 20.03125 17.023438 C 19.910156 17.023438 19.8125 17.121094 19.8125 17.242188 L 19.8125 29.9375 C 19.8125 30.058594 19.910156 30.15625 20.03125 30.15625 L 31.535156 30.15625 C 31.65625 30.15625 31.753906 30.058594 31.753906 29.9375 L 31.753906 17.242188 C 31.753906 17.121094 31.65625 17.023438 31.535156 17.023438 Z M 20.03125 17.023438 " fill-opacity="1" fill-rule="nonzero"/><path fill="#3b50a8" d="M 19.644531 21.695312 C 19.550781 21.695312 19.472656 21.617188 19.472656 21.523438 C 19.472656 21.425781 19.550781 21.347656 19.644531 21.347656 L 23.8125 21.328125 C 23.90625 21.328125 23.984375 21.40625 23.984375 21.503906 C 23.984375 21.601562 23.90625 21.679688 23.8125 21.679688 L 19.648438 21.695312 C 19.644531 21.695312 19.644531 21.695312 19.644531 21.695312 Z M 19.644531 21.695312 " fill-opacity="1" fill-rule="nonzero"/><path fill="#3b50a8" d="M 19.644531 19.609375 C 19.550781 19.609375 19.472656 19.53125 19.472656 19.433594 C 19.472656 19.339844 19.550781 19.261719 19.644531 19.257812 L 23.070312 19.242188 C 23.164062 19.242188 23.242188 19.320312 23.242188 19.414062 C 23.242188 19.511719 23.164062 19.589844 23.070312 19.589844 L 19.648438 19.609375 C 19.644531 19.609375 19.644531 19.609375 19.644531 19.609375 Z M 19.644531 19.609375 " fill-opacity="1" fill-rule="nonzero"/><path fill="#3b50a8" d="M 28.21875 19.585938 L 25.964844 19.585938 C 25.867188 19.585938 25.789062 19.507812 25.789062 19.414062 C 25.789062 19.316406 25.867188 19.238281 25.964844 19.238281 L 28.21875 19.238281 C 28.3125 19.238281 28.390625 19.316406 28.390625 19.414062 C 28.390625 19.507812 28.3125 19.585938 28.21875 19.585938 Z M 28.21875 19.585938 " fill-opacity="1" fill-rule="nonzero"/><path fill="#3b50a8" d="M 28.226562 21.679688 L 25.261719 21.679688 C 25.167969 21.679688 25.089844 21.601562 25.089844 21.503906 C 25.089844 21.40625 25.167969 21.328125 25.261719 21.328125 L 28.226562 21.328125 C 28.320312 21.328125 28.398438 21.40625 28.398438 21.503906 C 28.398438 21.601562 28.320312 21.679688 28.226562 21.679688 Z M 28.226562 21.679688 " fill-opacity="1" fill-rule="nonzero"/><path fill="#3b50a8" d="M 31.925781 21.71875 L 30.234375 21.71875 C 30.136719 21.71875 30.058594 21.640625 30.058594 21.542969 C 30.058594 21.445312 30.136719 21.367188 30.234375 21.367188 L 31.925781 21.367188 C 32.019531 21.367188 32.097656 21.445312 32.097656 21.542969 C 32.097656 21.640625 32.019531 21.71875 31.925781 21.71875 Z M 31.925781 21.71875 " fill-opacity="1" fill-rule="nonzero"/><path fill="#3b50a8" d="M 31.925781 19.585938 L 30.351562 19.585938 C 30.253906 19.585938 30.175781 19.507812 30.175781 19.414062 C 30.175781 19.316406 30.253906 19.238281 30.351562 19.238281 L 31.925781 19.238281 C 32.019531 19.238281 32.097656 19.316406 32.097656 19.414062 C 32.097656 19.507812 32.019531 19.585938 31.925781 19.585938 Z M 31.925781 19.585938 " fill-opacity="1" fill-rule="nonzero"/><path fill="#3b50a8" d="M 23.730469 30.523438 C 23.683594 30.523438 23.640625 30.503906 23.605469 30.472656 C 23.539062 30.402344 23.539062 30.292969 23.605469 30.222656 L 28.046875 25.714844 L 28.046875 21.542969 C 28.046875 21.445312 28.121094 21.367188 28.21875 21.367188 C 28.3125 21.367188 28.390625 21.445312 28.390625 21.542969 L 28.390625 25.789062 C 28.390625 25.835938 28.375 25.878906 28.339844 25.910156 L 23.851562 30.46875 C 23.816406 30.503906 23.773438 30.523438 23.730469 30.523438 Z M 23.730469 30.523438 " fill-opacity="1" fill-rule="nonzero"/><path fill="#3b50a8" d="M 31.875 25.960938 L 31.140625 25.960938 C 31.046875 25.960938 30.96875 25.882812 30.96875 25.789062 C 30.96875 25.691406 31.046875 25.613281 31.140625 25.613281 L 31.875 25.613281 C 31.972656 25.613281 32.050781 25.691406 32.050781 25.789062 C 32.050781 25.882812 31.972656 25.960938 31.875 25.960938 Z M 31.875 25.960938 " fill-opacity="1" fill-rule="nonzero"/><path fill="#3b50a8" d="M 30.230469 25.15625 C 30.136719 25.15625 30.058594 25.078125 30.058594 24.980469 L 30.058594 21.542969 C 30.058594 21.445312 30.136719 21.367188 30.230469 21.367188 C 30.328125 21.367188 30.40625 21.445312 30.40625 21.542969 L 30.40625 24.980469 C 30.40625 25.078125 30.328125 25.15625 30.230469 25.15625 Z M 30.230469 25.15625 " fill-opacity="1" fill-rule="nonzero"/><path fill="#3b50a8" d="M 30.351562 19.585938 C 30.277344 19.585938 30.210938 19.539062 30.183594 19.46875 L 29.347656 16.902344 C 29.316406 16.808594 29.367188 16.710938 29.457031 16.679688 C 29.546875 16.652344 29.644531 16.699219 29.675781 16.792969 L 30.515625 19.359375 C 30.542969 19.449219 30.496094 19.546875 30.402344 19.578125 C 30.386719 19.585938 30.367188 19.585938 30.351562 19.585938 Z M 30.351562 19.585938 " fill-opacity="1" fill-rule="nonzero"/><path fill="#3b50a8" d="M 28.21875 19.585938 C 28.144531 19.585938 28.078125 19.539062 28.054688 19.464844 L 27.222656 16.902344 C 27.195312 16.808594 27.242188 16.710938 27.335938 16.679688 C 27.425781 16.652344 27.523438 16.703125 27.554688 16.792969 L 28.382812 19.359375 C 28.414062 19.449219 28.363281 19.546875 28.273438 19.578125 C 28.253906 19.585938 28.234375 19.585938 28.21875 19.585938 Z M 28.21875 19.585938 " fill-opacity="1" fill-rule="nonzero"/><path fill="#3b50a8" d="M 26.941406 30.492188 C 26.898438 30.492188 26.851562 30.476562 26.820312 30.445312 C 26.75 30.375 26.75 30.265625 26.816406 30.195312 L 27.75 29.234375 C 27.78125 29.199219 27.824219 29.179688 27.871094 29.179688 L 29.222656 29.179688 C 29.316406 29.179688 29.394531 29.261719 29.394531 29.355469 C 29.394531 29.453125 29.316406 29.53125 29.222656 29.53125 L 27.945312 29.53125 L 27.0625 30.441406 C 27.03125 30.476562 26.984375 30.492188 26.941406 30.492188 Z M 26.941406 30.492188 " fill-opacity="1" fill-rule="nonzero"/><path fill="#3b50a8" d="M 31.925781 29.53125 L 30 29.53125 C 29.902344 29.53125 29.824219 29.453125 29.824219 29.355469 C 29.824219 29.261719 29.902344 29.179688 30 29.179688 L 31.925781 29.179688 C 32.019531 29.179688 32.097656 29.261719 32.097656 29.355469 C 32.097656 29.453125 32.019531 29.53125 31.925781 29.53125 Z M 31.925781 29.53125 " fill-opacity="1" fill-rule="nonzero"/><path fill="#ffabab" d="M 25.964844 19.707031 C 25.964844 20.496094 24.546875 22.394531 24.546875 22.394531 C 24.546875 22.394531 23.128906 20.496094 23.128906 19.707031 C 23.128906 18.917969 23.761719 18.277344 24.546875 18.277344 C 25.328125 18.277344 25.964844 18.917969 25.964844 19.707031 Z M 25.964844 19.707031 " fill-opacity="1" fill-rule="nonzero"/><path fill="#3b50a8" d="M 24.546875 22.570312 C 24.492188 22.570312 24.441406 22.542969 24.40625 22.5 C 24.394531 22.480469 24.042969 22.011719 23.691406 21.441406 C 23.203125 20.648438 22.957031 20.066406 22.957031 19.707031 C 22.957031 18.820312 23.667969 18.101562 24.546875 18.101562 C 25.421875 18.101562 26.136719 18.820312 26.136719 19.707031 C 26.136719 20.066406 25.890625 20.648438 25.402344 21.441406 C 25.046875 22.011719 24.699219 22.480469 24.683594 22.5 C 24.652344 22.542969 24.601562 22.570312 24.546875 22.570312 Z M 24.546875 18.449219 C 23.859375 18.449219 23.300781 19.015625 23.300781 19.707031 C 23.300781 20.242188 24.101562 21.476562 24.546875 22.101562 C 24.988281 21.476562 25.789062 20.242188 25.789062 19.707031 C 25.789062 19.015625 25.230469 18.449219 24.546875 18.449219 Z M 24.546875 18.449219 " fill-opacity="1" fill-rule="nonzero"/><path fill="#ffffff" d="M 25.308594 19.691406 C 25.308594 19.902344 25.234375 20.078125 25.089844 20.226562 C 24.945312 20.375 24.765625 20.449219 24.558594 20.449219 C 24.355469 20.449219 24.175781 20.375 24.03125 20.226562 C 23.882812 20.078125 23.8125 19.902344 23.8125 19.691406 C 23.8125 19.484375 23.882812 19.304688 24.03125 19.15625 C 24.175781 19.011719 24.355469 18.9375 24.558594 18.9375 C 24.765625 18.9375 24.945312 19.011719 25.089844 19.15625 C 25.234375 19.304688 25.308594 19.484375 25.308594 19.691406 Z M 25.308594 19.691406 " fill-opacity="1" fill-rule="nonzero"/><path fill="#3b50a8" d="M 24.558594 20.625 C 24.050781 20.625 23.636719 20.207031 23.636719 19.691406 C 23.636719 19.179688 24.050781 18.761719 24.558594 18.761719 C 25.070312 18.761719 25.480469 19.179688 25.480469 19.691406 C 25.480469 20.207031 25.070312 20.625 24.558594 20.625 Z M 24.558594 19.113281 C 24.242188 19.113281 23.984375 19.371094 23.984375 19.691406 C 23.984375 20.011719 24.242188 20.273438 24.558594 20.273438 C 24.878906 20.273438 25.136719 20.011719 25.136719 19.691406 C 25.136719 19.371094 24.878906 19.113281 24.558594 19.113281 Z M 24.558594 19.113281 " fill-opacity="1" fill-rule="nonzero"/><path fill="#ffabab" d="M 31.058594 27.101562 C 31.058594 27.890625 29.640625 29.789062 29.640625 29.789062 C 29.640625 29.789062 28.226562 27.890625 28.226562 27.101562 C 28.226562 26.308594 28.859375 25.667969 29.640625 25.667969 C 30.425781 25.667969 31.058594 26.308594 31.058594 27.101562 Z M 31.058594 27.101562 " fill-opacity="1" fill-rule="nonzero"/><path fill="#3b50a8" d="M 29.640625 29.964844 C 29.585938 29.964844 29.535156 29.9375 29.503906 29.894531 C 29.488281 29.875 29.140625 29.40625 28.785156 28.832031 C 28.300781 28.042969 28.050781 27.460938 28.050781 27.101562 C 28.050781 26.214844 28.765625 25.496094 29.640625 25.496094 C 30.519531 25.496094 31.234375 26.214844 31.234375 27.101562 C 31.234375 27.460938 30.984375 28.042969 30.496094 28.832031 C 30.144531 29.40625 29.796875 29.875 29.78125 29.894531 C 29.746094 29.9375 29.695312 29.964844 29.640625 29.964844 Z M 29.640625 25.84375 C 28.957031 25.84375 28.398438 26.40625 28.398438 27.101562 C 28.398438 27.636719 29.199219 28.871094 29.640625 29.492188 C 30.085938 28.871094 30.886719 27.636719 30.886719 27.101562 C 30.886719 26.40625 30.328125 25.84375 29.640625 25.84375 Z M 29.640625 25.84375 " fill-opacity="1" fill-rule="nonzero"/><path fill="#ffffff" d="M 30.40625 27.085938 C 30.40625 27.292969 30.332031 27.472656 30.1875 27.621094 C 30.039062 27.769531 29.863281 27.84375 29.65625 27.84375 C 29.449219 27.84375 29.273438 27.769531 29.128906 27.621094 C 28.980469 27.472656 28.90625 27.292969 28.90625 27.085938 C 28.90625 26.878906 28.980469 26.699219 29.128906 26.550781 C 29.273438 26.402344 29.449219 26.332031 29.65625 26.332031 C 29.863281 26.332031 30.039062 26.402344 30.1875 26.550781 C 30.332031 26.699219 30.40625 26.878906 30.40625 27.085938 Z M 30.40625 27.085938 " fill-opacity="1" fill-rule="nonzero"/><path fill="#3b50a8" d="M 29.65625 28.015625 C 29.148438 28.015625 28.734375 27.597656 28.734375 27.085938 C 28.734375 26.574219 29.148438 26.15625 29.65625 26.15625 C 30.164062 26.15625 30.578125 26.574219 30.578125 27.085938 C 30.578125 27.597656 30.164062 28.015625 29.65625 28.015625 Z M 29.65625 26.503906 C 29.339844 26.503906 29.082031 26.765625 29.082031 27.085938 C 29.082031 27.40625 29.339844 27.667969 29.65625 27.667969 C 29.972656 27.667969 30.230469 27.40625 30.230469 27.085938 C 30.230469 26.765625 29.972656 26.503906 29.65625 26.503906 Z M 29.65625 26.503906 " fill-opacity="1" fill-rule="nonzero"/><path fill="#ffffff" d="M 10.707031 19.113281 L 13.613281 14.945312 L 14.339844 15.460938 L 11.4375 19.628906 Z M 10.707031 19.113281 " fill-opacity="1" fill-rule="nonzero"/><path fill="#3b50a8" d="M 11.433594 19.804688 C 11.398438 19.804688 11.363281 19.792969 11.335938 19.773438 L 10.605469 19.257812 C 10.527344 19.199219 10.507812 19.089844 10.5625 19.011719 L 13.46875 14.84375 C 13.496094 14.804688 13.535156 14.78125 13.582031 14.769531 C 13.625 14.761719 13.671875 14.773438 13.710938 14.800781 L 14.4375 15.316406 C 14.515625 15.375 14.535156 15.484375 14.480469 15.5625 L 11.578125 19.730469 C 11.550781 19.769531 11.511719 19.792969 11.464844 19.800781 C 11.453125 19.804688 11.445312 19.804688 11.433594 19.804688 Z M 10.945312 19.070312 L 11.394531 19.386719 L 14.097656 15.503906 L 13.652344 15.1875 Z M 10.945312 19.070312 " fill-opacity="1" fill-rule="nonzero"/><path fill="#ffabab" d="M 8.925781 19.015625 C 9.636719 18.714844 10.480469 18.777344 11.160156 19.257812 C 11.835938 19.738281 12.179688 20.519531 12.140625 21.296875 L 10.515625 20.144531 Z M 8.925781 19.015625 " fill-opacity="1" fill-rule="nonzero"/><path fill="#3b50a8" d="M 12.140625 21.46875 C 12.105469 21.46875 12.070312 21.460938 12.039062 21.4375 L 8.828125 19.160156 C 8.777344 19.121094 8.75 19.058594 8.753906 18.996094 C 8.761719 18.933594 8.800781 18.878906 8.859375 18.855469 C 9.65625 18.515625 10.554688 18.613281 11.257812 19.113281 C 11.964844 19.613281 12.359375 20.433594 12.3125 21.304688 C 12.308594 21.367188 12.273438 21.425781 12.214844 21.453125 C 12.191406 21.464844 12.164062 21.46875 12.140625 21.46875 Z M 9.304688 19.070312 L 11.960938 20.953125 C 11.898438 20.332031 11.578125 19.765625 11.058594 19.398438 C 10.542969 19.03125 9.90625 18.917969 9.304688 19.070312 Z M 9.304688 19.070312 " fill-opacity="1" fill-rule="nonzero"/><path fill="#3b50a8" d="M 13.445312 18.183594 C 13.410156 18.183594 13.375 18.171875 13.34375 18.152344 L 12.917969 17.847656 C 12.839844 17.792969 12.820312 17.683594 12.875 17.605469 C 12.933594 17.527344 13.039062 17.507812 13.117188 17.5625 L 13.542969 17.867188 C 13.621094 17.921875 13.640625 18.03125 13.585938 18.109375 C 13.554688 18.15625 13.5 18.183594 13.445312 18.183594 Z M 13.445312 18.183594 " fill-opacity="1" fill-rule="nonzero"/><path fill="#ffe261" d="M 12.777344 18.980469 L 14.101562 17.046875 L 15.804688 18.238281 L 14.480469 20.171875 Z M 12.777344 18.980469 " fill-opacity="1" fill-rule="nonzero"/><path fill="#3b50a8" d="M 14.484375 20.347656 C 14.449219 20.347656 14.414062 20.335938 14.382812 20.316406 L 12.679688 19.125 C 12.601562 19.070312 12.582031 18.960938 12.636719 18.882812 L 13.960938 16.949219 C 13.984375 16.910156 14.027344 16.886719 14.070312 16.875 C 14.117188 16.867188 14.164062 16.878906 14.199219 16.90625 L 15.90625 18.09375 C 15.984375 18.148438 16.003906 18.257812 15.949219 18.339844 L 14.625 20.269531 C 14.597656 20.308594 14.558594 20.335938 14.511719 20.34375 C 14.503906 20.34375 14.492188 20.347656 14.484375 20.347656 Z M 13.019531 18.9375 L 14.4375 19.929688 L 15.566406 18.28125 L 14.148438 17.292969 Z M 13.019531 18.9375 " fill-opacity="1" fill-rule="nonzero"/><path fill="#3b50a8" d="M 15.140625 19.386719 C 15.105469 19.386719 15.070312 19.375 15.039062 19.355469 L 13.34375 18.152344 C 13.265625 18.097656 13.25 17.988281 13.304688 17.910156 C 13.359375 17.828125 13.464844 17.808594 13.542969 17.867188 L 15.238281 19.070312 C 15.316406 19.125 15.335938 19.234375 15.28125 19.3125 C 15.25 19.359375 15.195312 19.386719 15.140625 19.386719 Z M 15.140625 19.386719 " fill-opacity="1" fill-rule="nonzero"/><path fill="#3b50a8" d="M 13.628906 19.75 C 13.597656 19.75 13.5625 19.742188 13.53125 19.71875 C 13.453125 19.664062 13.433594 19.558594 13.488281 19.476562 L 14.8125 17.542969 C 14.867188 17.464844 14.976562 17.445312 15.054688 17.5 C 15.132812 17.554688 15.152344 17.664062 15.097656 17.742188 L 13.773438 19.675781 C 13.738281 19.726562 13.683594 19.75 13.628906 19.75 Z M 13.628906 19.75 " fill-opacity="1" fill-rule="nonzero"/><path fill="#3b50a8" d="M 11.964844 17.132812 C 11.929688 17.132812 11.894531 17.121094 11.863281 17.101562 L 11.4375 16.796875 C 11.359375 16.742188 11.339844 16.632812 11.394531 16.554688 C 11.453125 16.476562 11.558594 16.457031 11.636719 16.511719 L 12.0625 16.816406 C 12.140625 16.871094 12.160156 16.980469 12.105469 17.058594 C 12.074219 17.105469 12.019531 17.132812 11.964844 17.132812 Z M 11.964844 17.132812 " fill-opacity="1" fill-rule="nonzero"/><path fill="#ffe261" d="M 9.171875 16.414062 L 10.511719 14.492188 L 12.207031 15.695312 L 10.867188 17.617188 Z M 9.171875 16.414062 " fill-opacity="1" fill-rule="nonzero"/><path fill="#3b50a8" d="M 10.867188 17.792969 C 10.832031 17.792969 10.796875 17.78125 10.769531 17.761719 L 9.074219 16.558594 C 8.996094 16.5 8.976562 16.390625 9.03125 16.3125 L 10.371094 14.390625 C 10.398438 14.351562 10.4375 14.328125 10.484375 14.320312 C 10.527344 14.3125 10.574219 14.320312 10.613281 14.347656 L 12.308594 15.550781 C 12.386719 15.605469 12.40625 15.714844 12.347656 15.792969 L 11.011719 17.71875 C 10.984375 17.753906 10.945312 17.78125 10.898438 17.789062 C 10.886719 17.789062 10.878906 17.792969 10.867188 17.792969 Z M 9.414062 16.371094 L 10.828125 17.375 L 11.964844 15.738281 L 10.554688 14.734375 Z M 9.414062 16.371094 " fill-opacity="1" fill-rule="nonzero"/><path fill="#3b50a8" d="M 11.539062 16.832031 C 11.503906 16.832031 11.46875 16.820312 11.4375 16.796875 L 9.742188 15.597656 C 9.664062 15.539062 9.644531 15.429688 9.699219 15.351562 C 9.757812 15.273438 9.863281 15.253906 9.941406 15.308594 L 11.636719 16.511719 C 11.714844 16.566406 11.734375 16.675781 11.679688 16.757812 C 11.644531 16.804688 11.59375 16.832031 11.539062 16.832031 Z M 11.539062 16.832031 " fill-opacity="1" fill-rule="nonzero"/><path fill="#3b50a8" d="M 10.019531 17.191406 C 9.988281 17.191406 9.953125 17.179688 9.921875 17.160156 C 9.84375 17.101562 9.824219 16.992188 9.878906 16.914062 L 11.21875 14.992188 C 11.273438 14.914062 11.382812 14.894531 11.460938 14.949219 C 11.539062 15.003906 11.558594 15.113281 11.5 15.195312 L 10.164062 17.117188 C 10.128906 17.164062 10.074219 17.191406 10.019531 17.191406 Z M 10.019531 17.191406 " fill-opacity="1" fill-rule="nonzero"/><path fill="#3b50a8" d="M 10.804688 21.773438 C 10.804688 21.773438 10.804688 21.773438 10.800781 21.773438 C 10.40625 21.765625 10.046875 21.628906 9.757812 21.378906 C 9.492188 21.152344 9.304688 20.847656 9.21875 20.496094 C 9.199219 20.402344 9.253906 20.308594 9.347656 20.285156 C 9.441406 20.261719 9.535156 20.316406 9.558594 20.410156 C 9.625 20.691406 9.773438 20.933594 9.980469 21.113281 C 10.210938 21.308594 10.496094 21.417969 10.808594 21.425781 C 10.90625 21.429688 10.980469 21.507812 10.980469 21.605469 C 10.976562 21.699219 10.898438 21.773438 10.804688 21.773438 Z M 10.804688 21.773438 " fill-opacity="1" fill-rule="nonzero"/><path fill="#3b50a8" d="M 11.066406 22.480469 C 11.066406 22.480469 11.066406 22.480469 11.0625 22.480469 C 10.414062 22.464844 9.816406 22.238281 9.335938 21.828125 C 8.898438 21.453125 8.589844 20.945312 8.449219 20.363281 C 8.425781 20.269531 8.484375 20.175781 8.574219 20.152344 C 8.667969 20.128906 8.761719 20.1875 8.785156 20.28125 C 8.910156 20.789062 9.175781 21.234375 9.558594 21.5625 C 9.976562 21.917969 10.5 22.117188 11.074219 22.132812 C 11.167969 22.132812 11.242188 22.214844 11.242188 22.308594 C 11.238281 22.40625 11.160156 22.480469 11.066406 22.480469 Z M 11.066406 22.480469 " fill-opacity="1" fill-rule="nonzero"/><path fill="#8befa0" d="M 7.738281 24.570312 C 7.480469 24.890625 7 24.898438 6.730469 24.589844 C 6.570312 24.402344 6.4375 24.152344 6.464844 23.828125 C 6.503906 23.292969 7.199219 22.464844 7.199219 22.464844 L 7.203125 22.46875 C 7.203125 22.46875 7.921875 23.273438 7.976562 23.808594 C 8.011719 24.128906 7.890625 24.382812 7.738281 24.570312 Z M 7.738281 24.570312 " fill-opacity="1" fill-rule="nonzero"/><path fill="#3b50a8" d="M 7.226562 24.992188 C 6.988281 24.992188 6.761719 24.886719 6.601562 24.703125 C 6.371094 24.445312 6.265625 24.136719 6.289062 23.816406 C 6.335938 23.238281 6.992188 22.441406 7.066406 22.351562 C 7.125 22.28125 7.226562 22.269531 7.300781 22.324219 L 7.304688 22.328125 C 7.316406 22.335938 7.324219 22.34375 7.332031 22.351562 C 7.410156 22.4375 8.089844 23.21875 8.148438 23.792969 C 8.183594 24.109375 8.085938 24.417969 7.871094 24.683594 C 7.714844 24.875 7.488281 24.984375 7.242188 24.992188 C 7.238281 24.992188 7.234375 24.992188 7.226562 24.992188 Z M 7.203125 22.738281 C 6.984375 23.03125 6.660156 23.523438 6.636719 23.84375 C 6.617188 24.070312 6.695312 24.28125 6.859375 24.472656 C 6.957031 24.582031 7.09375 24.644531 7.238281 24.640625 C 7.378906 24.636719 7.511719 24.574219 7.605469 24.460938 C 7.761719 24.269531 7.828125 24.054688 7.804688 23.828125 C 7.769531 23.507812 7.429688 23.023438 7.203125 22.738281 Z M 7.738281 24.570312 Z M 7.738281 24.570312 " fill-opacity="1" fill-rule="nonzero"/><path fill="#8befa0" d="M 7.230469 26.625 C 7.273438 26.984375 7.652344 27.171875 8.027344 27.023438 C 8.253906 26.933594 8.488281 26.777344 8.636719 26.503906 C 8.878906 26.046875 8.75 25.105469 8.75 25.105469 L 8.746094 25.105469 C 8.746094 25.105469 7.753906 25.492188 7.429688 25.910156 C 7.238281 26.15625 7.203125 26.414062 7.230469 26.625 Z M 7.230469 26.625 " fill-opacity="1" fill-rule="nonzero"/><path fill="#3b50a8" d="M 7.765625 27.25 C 7.628906 27.25 7.492188 27.214844 7.378906 27.144531 C 7.199219 27.035156 7.082031 26.855469 7.058594 26.644531 C 7.019531 26.339844 7.101562 26.050781 7.292969 25.800781 C 7.644531 25.351562 8.640625 24.960938 8.683594 24.941406 C 8.695312 24.9375 8.707031 24.9375 8.714844 24.933594 L 8.71875 24.933594 C 8.765625 24.925781 8.816406 24.9375 8.851562 24.964844 C 8.890625 24.992188 8.917969 25.035156 8.921875 25.082031 C 8.929688 25.121094 9.054688 26.085938 8.789062 26.585938 C 8.640625 26.859375 8.40625 27.058594 8.089844 27.1875 C 7.984375 27.230469 7.875 27.25 7.765625 27.25 Z M 8.601562 25.355469 C 8.269531 25.503906 7.757812 25.769531 7.566406 26.015625 C 7.429688 26.191406 7.375 26.390625 7.402344 26.605469 C 7.417969 26.734375 7.492188 26.808594 7.554688 26.84375 C 7.667969 26.914062 7.820312 26.917969 7.964844 26.859375 C 8.203125 26.765625 8.378906 26.617188 8.484375 26.421875 C 8.621094 26.164062 8.625 25.675781 8.601562 25.355469 Z M 8.601562 25.355469 " fill-opacity="1" fill-rule="nonzero"/><path fill="#8befa0" d="M 7.214844 26.625 C 7.171875 26.984375 6.792969 27.171875 6.414062 27.023438 C 6.191406 26.933594 5.953125 26.777344 5.808594 26.503906 C 5.5625 26.046875 5.691406 25.105469 5.691406 25.105469 L 5.695312 25.105469 C 5.695312 25.105469 6.6875 25.492188 7.011719 25.910156 C 7.203125 26.15625 7.238281 26.414062 7.214844 26.625 Z M 7.214844 26.625 " fill-opacity="1" fill-rule="nonzero"/><path fill="#3b50a8" d="M 6.675781 27.25 C 6.570312 27.25 6.460938 27.230469 6.351562 27.1875 C 6.035156 27.058594 5.800781 26.859375 5.65625 26.585938 C 5.386719 26.085938 5.515625 25.121094 5.519531 25.082031 C 5.527344 25.035156 5.550781 24.992188 5.589844 24.964844 C 5.628906 24.9375 5.675781 24.925781 5.722656 24.933594 L 5.726562 24.933594 C 5.738281 24.9375 5.75 24.9375 5.757812 24.941406 C 5.800781 24.960938 6.800781 25.351562 7.148438 25.800781 C 7.339844 26.050781 7.421875 26.339844 7.386719 26.644531 C 7.359375 26.855469 7.246094 27.039062 7.066406 27.144531 C 6.949219 27.214844 6.816406 27.25 6.675781 27.25 Z M 5.839844 25.355469 C 5.820312 25.675781 5.820312 26.164062 5.960938 26.421875 C 6.066406 26.617188 6.238281 26.765625 6.476562 26.859375 C 6.621094 26.917969 6.777344 26.914062 6.886719 26.84375 C 6.949219 26.808594 7.027344 26.734375 7.042969 26.605469 C 7.066406 26.390625 7.011719 26.191406 6.875 26.015625 C 6.683594 25.769531 6.171875 25.503906 5.839844 25.355469 Z M 5.839844 25.355469 " fill-opacity="1" fill-rule="nonzero"/><path fill="#3b50a8" d="M 7.222656 28.453125 C 7.125 28.453125 7.046875 28.375 7.046875 28.277344 L 7.046875 24.8125 C 7.046875 24.714844 7.125 24.636719 7.222656 24.636719 C 7.316406 24.636719 7.394531 24.714844 7.394531 24.8125 L 7.394531 28.277344 C 7.394531 28.375 7.316406 28.453125 7.222656 28.453125 Z M 7.222656 28.453125 " fill-opacity="1" fill-rule="nonzero"/><path fill="#8befa0" d="M 14.679688 24.707031 C 14.417969 25.027344 13.941406 25.03125 13.671875 24.722656 C 13.511719 24.539062 13.378906 24.285156 13.402344 23.964844 C 13.445312 23.429688 14.140625 22.601562 14.140625 22.601562 L 14.144531 22.605469 C 14.144531 22.605469 14.859375 23.410156 14.917969 23.945312 C 14.953125 24.265625 14.832031 24.519531 14.679688 24.707031 Z M 14.679688 24.707031 " fill-opacity="1" fill-rule="nonzero"/><path fill="#3b50a8" d="M 14.167969 25.125 C 13.929688 25.125 13.699219 25.023438 13.542969 24.839844 C 13.3125 24.578125 13.207031 24.273438 13.230469 23.949219 C 13.277344 23.375 13.933594 22.578125 14.007812 22.488281 C 14.066406 22.417969 14.167969 22.40625 14.242188 22.460938 L 14.246094 22.460938 C 14.253906 22.46875 14.265625 22.476562 14.273438 22.488281 C 14.351562 22.574219 15.027344 23.351562 15.089844 23.925781 C 15.125 24.246094 15.027344 24.554688 14.8125 24.816406 C 14.65625 25.007812 14.425781 25.121094 14.183594 25.125 C 14.179688 25.125 14.171875 25.125 14.167969 25.125 Z M 14.144531 22.875 C 13.925781 23.164062 13.601562 23.65625 13.578125 23.976562 C 13.558594 24.207031 13.632812 24.417969 13.800781 24.609375 C 13.894531 24.71875 14.035156 24.777344 14.175781 24.777344 C 14.320312 24.773438 14.453125 24.707031 14.542969 24.597656 C 14.703125 24.402344 14.769531 24.191406 14.746094 23.964844 C 14.710938 23.644531 14.371094 23.15625 14.144531 22.875 Z M 14.679688 24.707031 Z M 14.679688 24.707031 " fill-opacity="1" fill-rule="nonzero"/><path fill="#8befa0" d="M 14.167969 26.761719 C 14.210938 27.121094 14.59375 27.308594 14.96875 27.160156 C 15.195312 27.070312 15.429688 26.914062 15.578125 26.636719 C 15.820312 26.183594 15.691406 25.238281 15.691406 25.238281 L 15.6875 25.242188 C 15.6875 25.242188 14.695312 25.628906 14.371094 26.042969 C 14.179688 26.292969 14.144531 26.546875 14.167969 26.761719 Z M 14.167969 26.761719 " fill-opacity="1" fill-rule="nonzero"/><path fill="#3b50a8" d="M 14.707031 27.386719 C 14.566406 27.386719 14.433594 27.351562 14.316406 27.28125 C 14.140625 27.171875 14.023438 26.992188 13.996094 26.78125 C 13.960938 26.476562 14.042969 26.183594 14.234375 25.9375 C 14.582031 25.488281 15.582031 25.09375 15.625 25.078125 C 15.636719 25.074219 15.644531 25.070312 15.65625 25.070312 L 15.660156 25.066406 C 15.707031 25.058594 15.753906 25.070312 15.792969 25.097656 C 15.832031 25.125 15.855469 25.167969 15.863281 25.214844 C 15.867188 25.257812 15.996094 26.222656 15.730469 26.722656 C 15.582031 26.992188 15.347656 27.195312 15.03125 27.320312 C 14.925781 27.363281 14.8125 27.386719 14.707031 27.386719 Z M 15.542969 25.492188 C 15.210938 25.640625 14.699219 25.902344 14.507812 26.152344 C 14.371094 26.328125 14.316406 26.523438 14.339844 26.738281 C 14.355469 26.871094 14.433594 26.941406 14.496094 26.980469 C 14.609375 27.046875 14.761719 27.054688 14.90625 26.996094 C 15.144531 26.902344 15.316406 26.753906 15.425781 26.554688 C 15.5625 26.296875 15.5625 25.8125 15.542969 25.492188 Z M 15.542969 25.492188 " fill-opacity="1" fill-rule="nonzero"/><path fill="#8befa0" d="M 14.15625 26.761719 C 14.113281 27.121094 13.730469 27.308594 13.355469 27.160156 C 13.128906 27.070312 12.894531 26.914062 12.746094 26.636719 C 12.503906 26.183594 12.632812 25.238281 12.632812 25.238281 L 12.636719 25.242188 C 12.636719 25.242188 13.628906 25.628906 13.953125 26.042969 C 14.144531 26.292969 14.179688 26.546875 14.15625 26.761719 Z M 14.15625 26.761719 " fill-opacity="1" fill-rule="nonzero"/><path fill="#3b50a8" d="M 13.617188 27.386719 C 13.511719 27.386719 13.398438 27.363281 13.292969 27.320312 C 12.976562 27.195312 12.742188 26.992188 12.59375 26.722656 C 12.328125 26.222656 12.453125 25.257812 12.460938 25.214844 C 12.46875 25.167969 12.492188 25.125 12.53125 25.097656 C 12.570312 25.070312 12.617188 25.058594 12.664062 25.066406 L 12.667969 25.070312 C 12.679688 25.070312 12.6875 25.074219 12.699219 25.078125 C 12.742188 25.09375 13.742188 25.488281 14.089844 25.9375 C 14.28125 26.183594 14.363281 26.476562 14.328125 26.78125 C 14.300781 26.992188 14.183594 27.171875 14.007812 27.28125 C 13.890625 27.351562 13.757812 27.386719 13.617188 27.386719 Z M 12.78125 25.492188 C 12.761719 25.8125 12.761719 26.296875 12.898438 26.554688 C 13.007812 26.753906 13.179688 26.902344 13.417969 26.996094 C 13.5625 27.054688 13.714844 27.046875 13.828125 26.980469 C 13.890625 26.941406 13.96875 26.871094 13.984375 26.738281 C 14.007812 26.523438 13.953125 26.328125 13.816406 26.152344 C 13.625 25.902344 13.113281 25.640625 12.78125 25.492188 Z M 12.78125 25.492188 " fill-opacity="1" fill-rule="nonzero"/><path fill="#3b50a8" d="M 14.160156 28.589844 C 14.066406 28.589844 13.988281 28.511719 13.988281 28.414062 L 13.988281 24.945312 C 13.988281 24.851562 14.066406 24.773438 14.160156 24.773438 C 14.257812 24.773438 14.335938 24.851562 14.335938 24.945312 L 14.335938 28.414062 C 14.335938 28.511719 14.257812 28.589844 14.160156 28.589844 Z M 14.160156 28.589844 " fill-opacity="1" fill-rule="nonzero"/><path fill="#ffffff" d="M 16.699219 29.140625 C 16.511719 29.191406 16.324219 29.253906 16.140625 29.328125 L 16.101562 29.34375 C 14.96875 29.808594 13.746094 29.808594 12.613281 29.34375 L 12.574219 29.328125 C 11.441406 28.863281 10.21875 28.863281 9.085938 29.328125 L 9.050781 29.34375 C 7.914062 29.808594 6.695312 29.808594 5.558594 29.34375 L 5.523438 29.328125 C 5.148438 29.175781 4.761719 29.074219 4.371094 29.023438 L 4.371094 30.722656 L 16.699219 30.722656 Z M 16.699219 29.140625 " fill-opacity="1" fill-rule="nonzero"/><path fill="#3b50a8" d="M 16.699219 30.898438 L 4.371094 30.898438 C 4.277344 30.898438 4.199219 30.820312 4.199219 30.722656 L 4.199219 29.023438 C 4.199219 28.972656 4.21875 28.925781 4.257812 28.890625 C 4.292969 28.859375 4.34375 28.84375 4.394531 28.851562 C 4.804688 28.90625 5.207031 29.011719 5.589844 29.167969 L 5.625 29.179688 C 6.722656 29.628906 7.886719 29.628906 8.984375 29.179688 L 9.019531 29.167969 C 9.605469 28.925781 10.214844 28.804688 10.832031 28.804688 C 11.445312 28.804688 12.054688 28.925781 12.640625 29.167969 L 12.675781 29.179688 C 13.777344 29.628906 14.9375 29.628906 16.039062 29.179688 L 16.074219 29.167969 C 16.257812 29.089844 16.453125 29.027344 16.652344 28.972656 C 16.707031 28.957031 16.761719 28.96875 16.804688 29 C 16.847656 29.035156 16.871094 29.085938 16.871094 29.140625 L 16.871094 30.722656 C 16.871094 30.820312 16.792969 30.898438 16.699219 30.898438 Z M 4.542969 30.550781 L 16.527344 30.550781 L 16.527344 29.375 C 16.414062 29.410156 16.308594 29.449219 16.203125 29.488281 L 16.167969 29.503906 C 15.582031 29.746094 14.972656 29.867188 14.355469 29.867188 C 13.742188 29.867188 13.132812 29.746094 12.546875 29.503906 L 12.511719 29.492188 C 11.410156 29.042969 10.25 29.042969 9.148438 29.492188 L 9.113281 29.503906 C 8.53125 29.746094 7.921875 29.867188 7.304688 29.867188 C 6.6875 29.867188 6.078125 29.746094 5.496094 29.503906 L 5.457031 29.492188 C 5.164062 29.371094 4.859375 29.28125 4.542969 29.226562 Z M 4.542969 30.550781 " fill-opacity="1" fill-rule="nonzero"/><path fill="#ffe261" d="M 16.699219 27.832031 C 16.511719 27.882812 16.324219 27.945312 16.140625 28.019531 L 16.101562 28.035156 C 14.96875 28.5 13.746094 28.5 12.613281 28.035156 L 12.574219 28.019531 C 11.441406 27.554688 10.21875 27.554688 9.085938 28.019531 L 9.050781 28.035156 C 7.914062 28.5 6.695312 28.5 5.558594 28.035156 L 5.523438 28.019531 C 5.148438 27.867188 4.761719 27.765625 4.371094 27.714844 L 4.371094 29.023438 C 4.761719 29.074219 5.148438 29.175781 5.523438 29.328125 L 5.558594 29.34375 C 6.695312 29.808594 7.914062 29.808594 9.050781 29.34375 L 9.085938 29.328125 C 10.21875 28.863281 11.441406 28.863281 12.574219 29.328125 L 12.613281 29.34375 C 13.746094 29.808594 14.96875 29.808594 16.101562 29.34375 L 16.140625 29.328125 C 16.324219 29.253906 16.511719 29.191406 16.699219 29.140625 Z M 16.699219 27.832031 " fill-opacity="1" fill-rule="nonzero"/><path fill="#3b50a8" d="M 14.355469 29.867188 C 13.742188 29.867188 13.132812 29.746094 12.546875 29.503906 L 12.511719 29.492188 C 11.410156 29.042969 10.25 29.042969 9.148438 29.492188 L 9.113281 29.503906 C 8.53125 29.746094 7.921875 29.867188 7.304688 29.867188 C 6.6875 29.867188 6.078125 29.746094 5.496094 29.503906 L 5.457031 29.492188 C 5.105469 29.347656 4.730469 29.246094 4.347656 29.195312 C 4.261719 29.183594 4.199219 29.109375 4.199219 29.023438 L 4.199219 27.714844 C 4.199219 27.664062 4.21875 27.617188 4.257812 27.582031 C 4.292969 27.550781 4.34375 27.535156 4.394531 27.542969 C 4.804688 27.59375 5.207031 27.703125 5.589844 27.859375 L 5.625 27.871094 C 6.722656 28.320312 7.886719 28.320312 8.984375 27.871094 L 9.019531 27.859375 C 9.605469 27.617188 10.214844 27.496094 10.832031 27.496094 C 11.445312 27.496094 12.054688 27.617188 12.640625 27.859375 L 12.675781 27.871094 C 13.777344 28.320312 14.9375 28.320312 16.039062 27.871094 L 16.074219 27.855469 C 16.257812 27.78125 16.453125 27.71875 16.652344 27.664062 C 16.707031 27.648438 16.761719 27.660156 16.804688 27.691406 C 16.847656 27.726562 16.871094 27.777344 16.871094 27.832031 L 16.871094 29.140625 C 16.871094 29.21875 16.820312 29.289062 16.742188 29.308594 C 16.554688 29.359375 16.375 29.421875 16.203125 29.488281 L 16.167969 29.503906 C 15.582031 29.746094 14.972656 29.867188 14.355469 29.867188 Z M 10.832031 28.804688 C 11.445312 28.804688 12.054688 28.925781 12.640625 29.167969 L 12.675781 29.179688 C 13.777344 29.628906 14.9375 29.628906 16.039062 29.179688 L 16.074219 29.167969 C 16.21875 29.109375 16.371094 29.054688 16.527344 29.007812 L 16.527344 28.066406 C 16.414062 28.101562 16.308594 28.140625 16.203125 28.179688 L 16.167969 28.195312 C 15.582031 28.4375 14.972656 28.558594 14.355469 28.558594 C 13.742188 28.558594 13.132812 28.4375 12.546875 28.195312 L 12.511719 28.179688 C 11.410156 27.734375 10.25 27.734375 9.148438 28.183594 L 9.113281 28.195312 C 8.527344 28.4375 7.921875 28.558594 7.304688 28.558594 C 6.6875 28.558594 6.078125 28.4375 5.496094 28.195312 L 5.457031 28.179688 C 5.164062 28.0625 4.859375 27.972656 4.542969 27.917969 L 4.542969 28.871094 C 4.902344 28.929688 5.253906 29.03125 5.589844 29.167969 L 5.625 29.179688 C 6.722656 29.628906 7.886719 29.628906 8.984375 29.179688 L 9.019531 29.167969 C 9.605469 28.925781 10.214844 28.804688 10.832031 28.804688 Z M 10.832031 28.804688 " fill-opacity="1" fill-rule="nonzero"/><g clip-path="url(#9390ffc8f9)"><path fill="#ffffff" d="M 26.195312 2.679688 L 26.726562 2.683594 C 27.132812 2.6875 27.457031 3.023438 27.453125 3.429688 L 27.371094 12.457031 C 27.367188 12.863281 27.039062 13.191406 26.632812 13.1875 L 11.691406 13.050781 C 11.285156 13.046875 10.960938 12.714844 10.964844 12.308594 L 11.046875 3.28125 C 11.050781 2.871094 11.378906 2.546875 11.785156 2.546875 Z M 26.195312 2.679688 " fill-opacity="1" fill-rule="nonzero"/><path fill="#3b50a8" d="M 26.640625 13.363281 C 26.636719 13.363281 26.636719 13.363281 26.632812 13.363281 L 11.6875 13.226562 C 11.445312 13.222656 11.21875 13.128906 11.050781 12.953125 C 10.882812 12.777344 10.789062 12.550781 10.792969 12.304688 L 10.871094 3.277344 C 10.878906 2.777344 11.28125 2.375 11.777344 2.375 C 11.78125 2.375 11.78125 2.375 11.785156 2.375 L 26.730469 2.511719 C 26.972656 2.511719 27.199219 2.609375 27.367188 2.785156 C 27.535156 2.957031 27.628906 3.1875 27.625 3.429688 L 27.546875 12.457031 C 27.539062 12.957031 27.136719 13.363281 26.640625 13.363281 Z M 11.777344 2.722656 C 11.472656 2.722656 11.222656 2.972656 11.21875 3.28125 L 11.136719 12.308594 C 11.136719 12.457031 11.195312 12.601562 11.296875 12.707031 C 11.402344 12.816406 11.542969 12.875 11.691406 12.875 L 26.636719 13.011719 C 26.636719 13.011719 26.640625 13.011719 26.640625 13.011719 C 26.945312 13.011719 27.195312 12.765625 27.199219 12.453125 L 27.28125 3.429688 C 27.28125 3.277344 27.222656 3.136719 27.121094 3.027344 C 27.015625 2.921875 26.875 2.859375 26.726562 2.859375 L 11.78125 2.722656 C 11.78125 2.722656 11.777344 2.722656 11.777344 2.722656 Z M 11.777344 2.722656 " fill-opacity="1" fill-rule="nonzero"/></g><path fill="#ffffff" d="M 17.605469 14.222656 C 17.609375 13.609375 17.617188 13.742188 17.621094 13.132812 L 20.8125 13.160156 C 20.808594 13.773438 20.800781 13.640625 20.796875 14.25 Z M 17.605469 14.222656 " fill-opacity="1" fill-rule="nonzero"/><path fill="#3b50a8" d="M 20.796875 14.425781 C 20.796875 14.425781 20.796875 14.425781 20.792969 14.425781 C 20.699219 14.425781 20.621094 14.34375 20.625 14.25 C 20.625 13.941406 20.628906 13.820312 20.632812 13.703125 C 20.632812 13.609375 20.636719 13.515625 20.636719 13.335938 L 17.792969 13.308594 C 17.789062 13.492188 17.789062 13.589844 17.785156 13.679688 C 17.785156 13.796875 17.78125 13.917969 17.777344 14.222656 C 17.777344 14.320312 17.699219 14.398438 17.605469 14.394531 C 17.507812 14.394531 17.429688 14.316406 17.433594 14.21875 C 17.433594 13.914062 17.4375 13.789062 17.441406 13.671875 C 17.441406 13.554688 17.445312 13.433594 17.449219 13.128906 C 17.449219 13.085938 17.46875 13.039062 17.5 13.007812 C 17.53125 12.976562 17.578125 12.957031 17.621094 12.957031 C 17.621094 12.957031 17.621094 12.957031 17.625 12.957031 L 20.8125 12.988281 C 20.910156 12.988281 20.988281 13.066406 20.984375 13.164062 C 20.984375 13.46875 20.980469 13.589844 20.976562 13.710938 C 20.976562 13.828125 20.972656 13.949219 20.96875 14.25 C 20.96875 14.347656 20.890625 14.425781 20.796875 14.425781 Z M 20.796875 14.425781 " fill-opacity="1" fill-rule="nonzero"/><path fill="#ffffff" d="M 22.289062 15.4375 L 15.980469 15.378906 C 15.683594 15.378906 15.445312 15.132812 15.449219 14.835938 C 15.449219 14.535156 15.695312 14.296875 15.988281 14.296875 L 22.300781 14.355469 C 22.59375 14.359375 22.832031 14.605469 22.832031 14.902344 C 22.828125 15.199219 22.585938 15.441406 22.289062 15.4375 Z M 22.289062 15.4375 " fill-opacity="1" fill-rule="nonzero"/><path fill="#3b50a8" d="M 22.292969 15.613281 C 22.292969 15.613281 22.289062 15.613281 22.289062 15.613281 L 15.976562 15.554688 C 15.789062 15.554688 15.613281 15.476562 15.480469 15.339844 C 15.347656 15.203125 15.273438 15.023438 15.273438 14.832031 C 15.277344 14.640625 15.351562 14.464844 15.488281 14.328125 C 15.625 14.195312 15.800781 14.121094 15.992188 14.125 L 22.300781 14.179688 C 22.488281 14.183594 22.667969 14.257812 22.800781 14.394531 C 22.933594 14.53125 23.003906 14.710938 23.003906 14.902344 C 23.003906 15.09375 22.925781 15.273438 22.792969 15.40625 C 22.65625 15.539062 22.480469 15.613281 22.292969 15.613281 Z M 22.292969 15.261719 C 22.492188 15.265625 22.65625 15.101562 22.65625 14.898438 C 22.660156 14.699219 22.5 14.53125 22.296875 14.53125 L 15.988281 14.472656 C 15.890625 14.472656 15.800781 14.507812 15.730469 14.578125 C 15.660156 14.648438 15.621094 14.738281 15.621094 14.835938 C 15.621094 15.039062 15.78125 15.203125 15.980469 15.207031 Z M 22.292969 15.261719 " fill-opacity="1" fill-rule="nonzero"/><path fill="#ffffff" d="M 25.53125 3.457031 L 26.015625 3.464844 C 26.382812 3.464844 26.679688 3.75 26.675781 4.097656 L 26.605469 11.777344 C 26.605469 12.121094 26.304688 12.402344 25.9375 12.398438 L 12.339844 12.273438 C 11.972656 12.269531 11.675781 11.984375 11.679688 11.640625 L 11.75 3.960938 C 11.753906 3.613281 12.054688 3.335938 12.421875 3.339844 Z M 25.53125 3.457031 " fill-opacity="1" fill-rule="nonzero"/><path fill="#3b50a8" d="M 25.941406 12.574219 C 25.941406 12.574219 25.9375 12.574219 25.933594 12.574219 L 12.339844 12.449219 C 11.875 12.445312 11.503906 12.082031 11.507812 11.636719 L 11.574219 3.960938 C 11.578125 3.742188 11.667969 3.539062 11.832031 3.390625 C 11.988281 3.242188 12.199219 3.164062 12.421875 3.164062 L 26.015625 3.289062 C 26.238281 3.289062 26.449219 3.375 26.605469 3.523438 C 26.765625 3.679688 26.851562 3.882812 26.847656 4.097656 L 26.78125 11.777344 C 26.777344 11.992188 26.6875 12.195312 26.523438 12.347656 C 26.367188 12.492188 26.160156 12.574219 25.941406 12.574219 Z M 12.414062 3.515625 C 12.28125 3.515625 12.160156 3.5625 12.066406 3.648438 C 11.972656 3.730469 11.921875 3.84375 11.921875 3.960938 L 11.855469 11.640625 C 11.851562 11.890625 12.070312 12.097656 12.339844 12.097656 L 25.9375 12.222656 C 26.070312 12.222656 26.195312 12.175781 26.289062 12.089844 C 26.382812 12.003906 26.433594 11.894531 26.433594 11.773438 L 26.503906 4.097656 C 26.503906 3.976562 26.453125 3.863281 26.363281 3.777344 C 26.273438 3.6875 26.148438 3.640625 26.015625 3.636719 L 12.417969 3.515625 C 12.417969 3.515625 12.414062 3.515625 12.414062 3.515625 Z M 12.414062 3.515625 " fill-opacity="1" fill-rule="nonzero"/><path fill="#ffffff" d="M 21.933594 6.125 C 21.933594 6.292969 21.875 6.4375 21.757812 6.554688 C 21.640625 6.671875 21.5 6.730469 21.335938 6.730469 C 21.167969 6.730469 21.027344 6.671875 20.910156 6.554688 C 20.792969 6.4375 20.734375 6.292969 20.734375 6.125 C 20.734375 5.957031 20.792969 5.816406 20.910156 5.699219 C 21.027344 5.578125 21.167969 5.519531 21.335938 5.519531 C 21.5 5.519531 21.640625 5.578125 21.757812 5.699219 C 21.875 5.816406 21.933594 5.957031 21.933594 6.125 Z M 21.933594 6.125 " fill-opacity="1" fill-rule="nonzero"/><path fill="#3b50a8" d="M 21.335938 6.90625 C 20.910156 6.90625 20.5625 6.554688 20.5625 6.125 C 20.5625 5.695312 20.910156 5.347656 21.335938 5.347656 C 21.761719 5.347656 22.109375 5.695312 22.109375 6.125 C 22.109375 6.554688 21.761719 6.90625 21.335938 6.90625 Z M 21.335938 5.695312 C 21.101562 5.695312 20.910156 5.890625 20.910156 6.125 C 20.910156 6.363281 21.101562 6.558594 21.335938 6.558594 C 21.570312 6.558594 21.761719 6.363281 21.761719 6.125 C 21.761719 5.890625 21.570312 5.695312 21.335938 5.695312 Z M 21.335938 5.695312 " fill-opacity="1" fill-rule="nonzero"/><path fill="#ffffff" d="M 19.101562 7.730469 C 19.101562 7.898438 19.042969 8.039062 18.925781 8.15625 C 18.808594 8.277344 18.667969 8.335938 18.5 8.335938 C 18.335938 8.335938 18.195312 8.277344 18.078125 8.15625 C 17.960938 8.039062 17.902344 7.898438 17.902344 7.730469 C 17.902344 7.5625 17.960938 7.417969 18.078125 7.300781 C 18.195312 7.183594 18.335938 7.125 18.5 7.125 C 18.667969 7.125 18.808594 7.183594 18.925781 7.300781 C 19.042969 7.417969 19.101562 7.5625 19.101562 7.730469 Z M 19.101562 7.730469 " fill-opacity="1" fill-rule="nonzero"/><path fill="#3b50a8" d="M 18.5 8.511719 C 18.074219 8.511719 17.726562 8.160156 17.726562 7.730469 C 17.726562 7.300781 18.074219 6.949219 18.5 6.949219 C 18.925781 6.949219 19.273438 7.300781 19.273438 7.730469 C 19.273438 8.160156 18.925781 8.511719 18.5 8.511719 Z M 18.5 7.300781 C 18.265625 7.300781 18.074219 7.492188 18.074219 7.730469 C 18.074219 7.96875 18.265625 8.160156 18.5 8.160156 C 18.734375 8.160156 18.925781 7.96875 18.925781 7.730469 C 18.925781 7.492188 18.734375 7.300781 18.5 7.300781 Z M 18.5 7.300781 " fill-opacity="1" fill-rule="nonzero"/><path fill="#ffffff" d="M 24.535156 4.796875 C 24.535156 4.964844 24.476562 5.109375 24.359375 5.226562 C 24.242188 5.34375 24.101562 5.402344 23.933594 5.402344 C 23.769531 5.402344 23.628906 5.34375 23.511719 5.226562 C 23.394531 5.109375 23.335938 4.964844 23.335938 4.796875 C 23.335938 4.628906 23.394531 4.488281 23.511719 4.371094 C 23.628906 4.25 23.769531 4.191406 23.933594 4.191406 C 24.101562 4.191406 24.242188 4.25 24.359375 4.371094 C 24.476562 4.488281 24.535156 4.628906 24.535156 4.796875 Z M 24.535156 4.796875 " fill-opacity="1" fill-rule="nonzero"/><path fill="#3b50a8" d="M 23.933594 5.578125 C 23.507812 5.578125 23.160156 5.226562 23.160156 4.796875 C 23.160156 4.367188 23.507812 4.019531 23.933594 4.019531 C 24.359375 4.019531 24.707031 4.367188 24.707031 4.796875 C 24.707031 5.226562 24.359375 5.578125 23.933594 5.578125 Z M 23.933594 4.367188 C 23.699219 4.367188 23.507812 4.558594 23.507812 4.796875 C 23.507812 5.035156 23.699219 5.230469 23.933594 5.230469 C 24.167969 5.230469 24.359375 5.035156 24.359375 4.796875 C 24.359375 4.558594 24.167969 4.367188 23.933594 4.367188 Z M 23.933594 4.367188 " fill-opacity="1" fill-rule="nonzero"/><path fill="#ffffff" d="M 21.933594 6.34375 L 22.164062 6.421875 C 22.710938 6.597656 23.308594 6.34375 23.558594 5.820312 L 23.757812 5.402344 Z M 21.933594 6.34375 " fill-opacity="1" fill-rule="nonzero"/><path fill="#3b50a8" d="M 22.519531 6.652344 C 22.382812 6.652344 22.242188 6.628906 22.109375 6.585938 L 21.882812 6.511719 C 21.789062 6.480469 21.742188 6.382812 21.769531 6.292969 C 21.800781 6.199219 21.898438 6.148438 21.988281 6.179688 L 22.21875 6.253906 C 22.679688 6.40625 23.191406 6.183594 23.402344 5.742188 L 23.605469 5.328125 C 23.644531 5.242188 23.75 5.203125 23.835938 5.246094 C 23.921875 5.289062 23.957031 5.394531 23.914062 5.480469 L 23.714844 5.894531 C 23.574219 6.1875 23.335938 6.417969 23.039062 6.542969 C 22.875 6.613281 22.695312 6.652344 22.519531 6.652344 Z M 22.519531 6.652344 " fill-opacity="1" fill-rule="nonzero"/><path fill="#ffffff" d="M 18.683594 7.125 L 18.898438 6.53125 C 19.101562 5.960938 19.707031 5.652344 20.28125 5.820312 L 20.734375 5.953125 Z M 18.683594 7.125 " fill-opacity="1" fill-rule="nonzero"/><path fill="#3b50a8" d="M 18.683594 7.300781 C 18.664062 7.300781 18.644531 7.296875 18.625 7.289062 C 18.535156 7.253906 18.488281 7.15625 18.523438 7.066406 L 18.734375 6.46875 C 18.96875 5.816406 19.671875 5.460938 20.332031 5.652344 L 20.785156 5.785156 C 20.875 5.8125 20.929688 5.910156 20.902344 6.003906 C 20.875 6.097656 20.777344 6.148438 20.6875 6.121094 L 20.234375 5.988281 C 19.75 5.847656 19.234375 6.109375 19.0625 6.589844 L 18.847656 7.183594 C 18.820312 7.253906 18.753906 7.300781 18.683594 7.300781 Z M 18.683594 7.300781 " fill-opacity="1" fill-rule="nonzero"/><path fill="#ffffff" d="M 18.195312 11.402344 L 25.675781 11.402344 L 25.675781 5.519531 Z M 18.195312 11.402344 " fill-opacity="1" fill-rule="nonzero"/><path fill="#3b50a8" d="M 25.675781 11.578125 L 18.195312 11.578125 C 18.101562 11.578125 18.023438 11.5 18.023438 11.402344 C 18.023438 11.308594 18.101562 11.230469 18.195312 11.230469 L 25.5 11.230469 L 25.5 5.519531 C 25.5 5.425781 25.578125 5.347656 25.675781 5.347656 C 25.769531 5.347656 25.847656 5.425781 25.847656 5.519531 L 25.847656 11.402344 C 25.847656 11.5 25.769531 11.578125 25.675781 11.578125 Z M 25.675781 11.578125 " fill-opacity="1" fill-rule="nonzero"/><path fill="#ffe261" d="M 23.289062 7.25 L 24.726562 7.25 L 24.726562 11.402344 L 23.289062 11.402344 Z M 23.289062 7.25 " fill-opacity="1" fill-rule="nonzero"/><path fill="#3b50a8" d="M 24.726562 11.578125 L 23.289062 11.578125 C 23.195312 11.578125 23.117188 11.5 23.117188 11.402344 L 23.117188 7.25 C 23.117188 7.152344 23.195312 7.074219 23.289062 7.074219 L 24.726562 7.074219 C 24.824219 7.074219 24.902344 7.152344 24.902344 7.25 L 24.902344 11.402344 C 24.902344 11.5 24.824219 11.578125 24.726562 11.578125 Z M 23.460938 11.230469 L 24.554688 11.230469 L 24.554688 7.425781 L 23.460938 7.425781 Z M 23.460938 11.230469 " fill-opacity="1" fill-rule="nonzero"/><path fill="#8befa0" d="M 20.941406 8.34375 L 22.378906 8.34375 L 22.378906 11.402344 L 20.941406 11.402344 Z M 20.941406 8.34375 " fill-opacity="1" fill-rule="nonzero"/><path fill="#3b50a8" d="M 22.378906 11.578125 L 20.941406 11.578125 C 20.84375 11.578125 20.769531 11.5 20.769531 11.402344 L 20.769531 8.34375 C 20.769531 8.25 20.84375 8.171875 20.941406 8.171875 L 22.378906 8.171875 C 22.472656 8.171875 22.550781 8.25 22.550781 8.34375 L 22.550781 11.402344 C 22.550781 11.5 22.472656 11.578125 22.378906 11.578125 Z M 21.113281 11.230469 L 22.207031 11.230469 L 22.207031 8.519531 L 21.113281 8.519531 Z M 21.113281 11.230469 " fill-opacity="1" fill-rule="nonzero"/><path fill="#ffabab" d="M 18.59375 9.328125 L 20.03125 9.328125 L 20.03125 11.402344 L 18.59375 11.402344 Z M 18.59375 9.328125 " fill-opacity="1" fill-rule="nonzero"/><path fill="#3b50a8" d="M 20.03125 11.578125 L 18.59375 11.578125 C 18.496094 11.578125 18.417969 11.5 18.417969 11.402344 L 18.417969 9.328125 C 18.417969 9.230469 18.496094 9.152344 18.59375 9.152344 L 20.03125 9.152344 C 20.125 9.152344 20.203125 9.230469 20.203125 9.328125 L 20.203125 11.402344 C 20.203125 11.5 20.125 11.578125 20.03125 11.578125 Z M 18.765625 11.230469 L 19.855469 11.230469 L 19.855469 9.503906 L 18.765625 9.503906 Z M 18.765625 11.230469 " fill-opacity="1" fill-rule="nonzero"/><path fill="#ffabab" d="M 15.933594 9.867188 C 16.574219 10 17.007812 10.25 17.007812 10.53125 C 17.007812 10.957031 16.042969 11.300781 14.855469 11.300781 C 13.667969 11.300781 12.703125 10.957031 12.703125 10.53125 C 12.703125 10.25 13.136719 10 13.777344 9.867188 Z M 15.933594 9.867188 " fill-opacity="1" fill-rule="nonzero"/><path fill="#3b50a8" d="M 14.855469 11.472656 C 13.699219 11.472656 12.53125 11.152344 12.53125 10.53125 C 12.53125 10.160156 12.972656 9.855469 13.742188 9.699219 C 13.835938 9.679688 13.929688 9.738281 13.949219 9.832031 C 13.96875 9.929688 13.90625 10.019531 13.8125 10.039062 C 13.128906 10.183594 12.878906 10.414062 12.878906 10.53125 C 12.878906 10.621094 13.011719 10.773438 13.390625 10.910156 C 13.78125 11.046875 14.300781 11.125 14.855469 11.125 C 15.410156 11.125 15.929688 11.046875 16.320312 10.910156 C 16.699219 10.773438 16.832031 10.621094 16.832031 10.53125 C 16.832031 10.414062 16.582031 10.183594 15.898438 10.039062 C 15.804688 10.019531 15.742188 9.929688 15.761719 9.832031 C 15.78125 9.738281 15.875 9.679688 15.96875 9.699219 C 16.738281 9.855469 17.179688 10.160156 17.179688 10.53125 C 17.179688 11.152344 16.011719 11.472656 14.855469 11.472656 Z M 14.855469 11.472656 " fill-opacity="1" fill-rule="nonzero"/><path fill="#ffabab" d="M 16.792969 6.535156 C 16.792969 7.613281 14.855469 10.210938 14.855469 10.210938 C 14.855469 10.210938 12.917969 7.613281 12.917969 6.535156 C 12.917969 5.453125 13.785156 4.578125 14.855469 4.578125 C 15.925781 4.578125 16.792969 5.453125 16.792969 6.535156 Z M 16.792969 6.535156 " fill-opacity="1" fill-rule="nonzero"/><path fill="#3b50a8" d="M 14.855469 10.386719 C 14.800781 10.386719 14.75 10.359375 14.71875 10.316406 C 14.710938 10.308594 14.222656 9.652344 13.738281 8.871094 C 13.078125 7.800781 12.742188 7.015625 12.742188 6.535156 C 12.742188 5.359375 13.691406 4.402344 14.855469 4.402344 C 16.019531 4.402344 16.96875 5.359375 16.96875 6.535156 C 16.96875 7.015625 16.632812 7.800781 15.972656 8.871094 C 15.488281 9.652344 15 10.308594 14.992188 10.316406 C 14.960938 10.359375 14.910156 10.386719 14.855469 10.386719 Z M 14.855469 4.753906 C 13.882812 4.753906 13.089844 5.550781 13.089844 6.535156 C 13.089844 7.304688 14.257812 9.089844 14.855469 9.917969 C 15.453125 9.089844 16.621094 7.304688 16.621094 6.535156 C 16.621094 5.550781 15.828125 4.753906 14.855469 4.753906 Z M 14.855469 4.753906 " fill-opacity="1" fill-rule="nonzero"/><path fill="#ffffff" d="M 15.898438 6.515625 C 15.898438 6.652344 15.875 6.785156 15.820312 6.910156 C 15.769531 7.039062 15.695312 7.148438 15.597656 7.246094 C 15.503906 7.34375 15.390625 7.417969 15.265625 7.46875 C 15.140625 7.523438 15.011719 7.546875 14.875 7.546875 C 14.738281 7.546875 14.609375 7.523438 14.484375 7.46875 C 14.359375 7.417969 14.246094 7.34375 14.152344 7.246094 C 14.054688 7.148438 13.980469 7.039062 13.929688 6.910156 C 13.878906 6.785156 13.851562 6.652344 13.851562 6.515625 C 13.851562 6.378906 13.878906 6.246094 13.929688 6.121094 C 13.980469 5.992188 14.054688 5.882812 14.152344 5.785156 C 14.246094 5.6875 14.359375 5.613281 14.484375 5.558594 C 14.609375 5.507812 14.738281 5.480469 14.875 5.480469 C 15.011719 5.480469 15.140625 5.507812 15.265625 5.558594 C 15.390625 5.613281 15.503906 5.6875 15.597656 5.785156 C 15.695312 5.882812 15.769531 5.992188 15.820312 6.121094 C 15.875 6.246094 15.898438 6.378906 15.898438 6.515625 Z M 15.898438 6.515625 " fill-opacity="1" fill-rule="nonzero"/><path fill="#3b50a8" d="M 14.875 7.722656 C 14.214844 7.722656 13.679688 7.179688 13.679688 6.515625 C 13.679688 5.847656 14.214844 5.308594 14.875 5.308594 C 15.535156 5.308594 16.074219 5.847656 16.074219 6.515625 C 16.074219 7.179688 15.535156 7.722656 14.875 7.722656 Z M 14.875 5.65625 C 14.40625 5.65625 14.023438 6.042969 14.023438 6.515625 C 14.023438 6.988281 14.40625 7.375 14.875 7.375 C 15.34375 7.375 15.726562 6.988281 15.726562 6.515625 C 15.726562 6.042969 15.34375 5.65625 14.875 5.65625 Z M 14.875 5.65625 " fill-opacity="1" fill-rule="nonzero"/></svg>