<svg xmlns="http://www.w3.org/2000/svg" xmlns:xlink="http://www.w3.org/1999/xlink" width="50" zoomAndPan="magnify" viewBox="0 0 37.5 37.499999" height="50" preserveAspectRatio="xMidYMid meet" version="1.0"><defs><clipPath id="d6802e3e2b"><path d="M 19 19 L 34 19 L 34 32.960938 L 19 32.960938 Z M 19 19 " clip-rule="nonzero"/></clipPath><clipPath id="3517bc9ee9"><path d="M 2.429688 20 L 24 20 L 24 32.960938 L 2.429688 32.960938 Z M 2.429688 20 " clip-rule="nonzero"/></clipPath><clipPath id="0d2976c5c6"><path d="M 2.429688 17 L 32 17 L 32 32.960938 L 2.429688 32.960938 Z M 2.429688 17 " clip-rule="nonzero"/></clipPath><clipPath id="6a0225c248"><path d="M 10 4.097656 L 26 4.097656 L 26 24 L 10 24 Z M 10 4.097656 " clip-rule="nonzero"/></clipPath></defs><path fill="#1976d2" d="M 31.359375 20.550781 L 30.445312 17.550781 C 30.34375 17.207031 30.191406 16.890625 29.988281 16.601562 C 29.785156 16.308594 29.542969 16.058594 29.257812 15.847656 C 28.976562 15.636719 28.667969 15.472656 28.332031 15.363281 C 27.996094 15.253906 27.652344 15.199219 27.300781 15.199219 L 9.273438 15.199219 C 8.921875 15.199219 8.578125 15.253906 8.242188 15.363281 C 7.90625 15.472656 7.597656 15.636719 7.316406 15.847656 C 7.03125 16.058594 6.789062 16.308594 6.585938 16.601562 C 6.382812 16.894531 6.230469 17.207031 6.125 17.550781 L 5.644531 19.140625 C 5.570312 19.382812 5.578125 19.628906 5.671875 19.867188 C 5.761719 20.105469 5.917969 20.292969 6.136719 20.421875 L 22.226562 29.996094 C 22.445312 30.128906 22.683594 30.175781 22.9375 30.140625 C 23.195312 30.101562 23.410156 29.988281 23.582031 29.796875 L 31.113281 21.636719 C 31.402344 21.324219 31.484375 20.960938 31.359375 20.550781 Z M 31.359375 20.550781 " fill-opacity="1" fill-rule="nonzero"/><path fill="#689f38" d="M 11.554688 21.070312 L 7.25 18.507812 C 7.105469 18.421875 6.949219 18.371094 6.78125 18.359375 C 6.613281 18.34375 6.453125 18.367188 6.296875 18.429688 C 6.140625 18.492188 6.003906 18.585938 5.890625 18.707031 C 5.777344 18.832031 5.695312 18.976562 5.644531 19.140625 L 3.46875 26.289062 C 3.402344 26.515625 3.402344 26.742188 3.476562 26.96875 C 3.550781 27.191406 3.683594 27.375 3.871094 27.515625 C 4.0625 27.652344 4.273438 27.722656 4.507812 27.726562 C 4.742188 27.730469 4.957031 27.660156 5.148438 27.527344 L 11.625 22.9375 C 11.777344 22.828125 11.898438 22.691406 11.980469 22.519531 C 12.0625 22.351562 12.101562 22.171875 12.09375 21.984375 C 12.085938 21.796875 12.035156 21.621094 11.9375 21.457031 C 11.84375 21.296875 11.714844 21.167969 11.554688 21.070312 Z M 11.554688 21.070312 " fill-opacity="1" fill-rule="nonzero"/><g clip-path="url(#d6802e3e2b)"><path fill="#689f38" d="M 33.824219 28.652344 L 31.359375 20.550781 C 31.332031 20.457031 31.292969 20.371094 31.242188 20.289062 C 31.1875 20.207031 31.128906 20.132812 31.058594 20.066406 C 30.988281 20 30.910156 19.941406 30.824219 19.898438 C 30.738281 19.851562 30.652344 19.816406 30.558594 19.796875 C 30.464844 19.773438 30.367188 19.765625 30.273438 19.769531 C 30.175781 19.773438 30.082031 19.789062 29.988281 19.816406 C 29.898438 19.84375 29.8125 19.886719 29.730469 19.9375 C 29.648438 19.988281 29.574219 20.050781 29.507812 20.121094 L 19.386719 31.09375 C 19.238281 31.257812 19.144531 31.445312 19.109375 31.664062 C 19.070312 31.882812 19.097656 32.089844 19.183594 32.292969 C 19.269531 32.496094 19.40625 32.660156 19.585938 32.78125 C 19.769531 32.902344 19.96875 32.960938 20.1875 32.960938 L 30.675781 32.960938 C 30.933594 32.960938 31.1875 32.933594 31.4375 32.871094 C 31.691406 32.8125 31.929688 32.722656 32.160156 32.605469 C 32.390625 32.488281 32.601562 32.34375 32.800781 32.175781 C 32.996094 32.007812 33.171875 31.820312 33.324219 31.609375 C 33.476562 31.402344 33.605469 31.175781 33.707031 30.9375 C 33.804688 30.695312 33.878906 30.449219 33.921875 30.191406 C 33.964844 29.933594 33.976562 29.675781 33.960938 29.414062 C 33.945312 29.15625 33.898438 28.902344 33.824219 28.652344 Z M 33.824219 28.652344 " fill-opacity="1" fill-rule="nonzero"/></g><g clip-path="url(#3517bc9ee9)"><path fill="#1976d2" d="M 23.335938 28.085938 L 11.554688 21.070312 C 11.367188 20.960938 11.167969 20.910156 10.953125 20.917969 C 10.738281 20.925781 10.542969 20.992188 10.367188 21.117188 L 3.890625 25.707031 C 3.683594 25.851562 3.542969 26.046875 3.46875 26.289062 L 2.75 28.652344 C 2.675781 28.902344 2.628906 29.15625 2.613281 29.414062 C 2.597656 29.675781 2.609375 29.933594 2.652344 30.191406 C 2.695312 30.449219 2.769531 30.695312 2.867188 30.9375 C 2.96875 31.175781 3.097656 31.398438 3.25 31.609375 C 3.402344 31.820312 3.578125 32.007812 3.773438 32.175781 C 3.972656 32.34375 4.183594 32.488281 4.414062 32.605469 C 4.644531 32.722656 4.882812 32.8125 5.136719 32.871094 C 5.386719 32.933594 5.640625 32.960938 5.898438 32.960938 L 20.1875 32.960938 C 20.507812 32.960938 20.773438 32.84375 20.992188 32.609375 L 23.582031 29.796875 C 23.695312 29.675781 23.777344 29.535156 23.828125 29.371094 C 23.878906 29.210938 23.890625 29.046875 23.867188 28.882812 C 23.84375 28.714844 23.785156 28.5625 23.691406 28.421875 C 23.597656 28.28125 23.480469 28.167969 23.335938 28.085938 Z M 23.335938 28.085938 " fill-opacity="1" fill-rule="nonzero"/></g><g clip-path="url(#0d2976c5c6)"><path fill="#ffb300" d="M 31.542969 21.160156 L 20.65625 32.960938 L 17.660156 32.960938 L 21.042969 29.296875 L 11.046875 23.347656 L 2.609375 29.320312 C 2.628906 29.09375 2.675781 28.871094 2.75 28.65625 L 3.585938 25.921875 L 8.972656 22.105469 L 5.394531 19.972656 L 6.054688 17.796875 L 22.578125 27.632812 L 30.652344 18.882812 C 30.695312 18.832031 30.746094 18.785156 30.804688 18.75 Z M 31.542969 21.160156 " fill-opacity="1" fill-rule="nonzero"/></g><g clip-path="url(#6a0225c248)"><path fill="#f44336" d="M 23.644531 6.417969 C 22.902344 5.679688 22.046875 5.121094 21.082031 4.738281 C 20.113281 4.359375 19.109375 4.183594 18.074219 4.21875 C 17.582031 4.238281 17.097656 4.300781 16.621094 4.414062 C 16.144531 4.523438 15.679688 4.679688 15.234375 4.878906 C 14.785156 5.078125 14.359375 5.320312 13.957031 5.601562 C 13.550781 5.882812 13.179688 6.199219 12.835938 6.550781 C 12.492188 6.90625 12.183594 7.289062 11.910156 7.699219 C 11.636719 8.113281 11.40625 8.546875 11.214844 9.003906 C 11.027344 9.460938 10.878906 9.929688 10.777344 10.417969 C 10.675781 10.902344 10.617188 11.390625 10.609375 11.886719 C 10.578125 13.632812 11.082031 15.203125 12.117188 16.597656 C 12.253906 16.808594 15.714844 21.675781 16.820312 23.226562 C 16.902344 23.339844 16.992188 23.441406 17.097656 23.53125 C 17.203125 23.625 17.316406 23.703125 17.441406 23.765625 C 17.5625 23.828125 17.691406 23.878906 17.824219 23.910156 C 17.960938 23.945312 18.097656 23.960938 18.234375 23.960938 C 18.371094 23.960938 18.507812 23.945312 18.644531 23.914062 C 18.777344 23.882812 18.90625 23.835938 19.03125 23.773438 C 19.152344 23.710938 19.269531 23.632812 19.375 23.542969 C 19.480469 23.453125 19.574219 23.351562 19.65625 23.238281 C 19.699219 23.183594 24.261719 16.867188 24.4375 16.640625 C 25.453125 15.257812 25.960938 13.707031 25.96875 11.988281 C 25.972656 10.9375 25.769531 9.929688 25.367188 8.960938 C 24.964844 7.996094 24.390625 7.148438 23.644531 6.417969 Z M 23.644531 6.417969 " fill-opacity="1" fill-rule="nonzero"/></g><path fill="#eeeeee" d="M 21.578125 12.089844 C 21.578125 12.53125 21.496094 12.957031 21.328125 13.363281 C 21.160156 13.773438 20.921875 14.132812 20.613281 14.445312 C 20.304688 14.757812 19.949219 15 19.546875 15.167969 C 19.144531 15.335938 18.722656 15.421875 18.289062 15.421875 C 17.851562 15.421875 17.429688 15.335938 17.027344 15.167969 C 16.625 15 16.269531 14.757812 15.960938 14.445312 C 15.652344 14.132812 15.414062 13.773438 15.246094 13.363281 C 15.078125 12.957031 14.996094 12.53125 14.996094 12.089844 C 14.996094 11.648438 15.078125 11.222656 15.246094 10.816406 C 15.414062 10.40625 15.652344 10.046875 15.960938 9.734375 C 16.269531 9.421875 16.625 9.183594 17.027344 9.011719 C 17.429688 8.84375 17.851562 8.757812 18.289062 8.757812 C 18.722656 8.757812 19.144531 8.84375 19.546875 9.011719 C 19.949219 9.183594 20.304688 9.421875 20.613281 9.734375 C 20.921875 10.046875 21.160156 10.40625 21.328125 10.816406 C 21.496094 11.222656 21.578125 11.648438 21.578125 12.089844 Z M 21.578125 12.089844 " fill-opacity="1" fill-rule="nonzero"/></svg>