<svg xmlns="http://www.w3.org/2000/svg" xmlns:xlink="http://www.w3.org/1999/xlink" width="50" zoomAndPan="magnify" viewBox="0 0 37.5 37.499999" height="50" preserveAspectRatio="xMidYMid meet" version="1.0"><defs><clipPath id="be81e8a001"><path d="M 24 12 L 35.15625 12 L 35.15625 17 L 24 17 Z M 24 12 " clip-rule="nonzero"/></clipPath><clipPath id="dad1e10d11"><path d="M 24 2.101562 L 35 2.101562 L 35 15 L 24 15 Z M 24 2.101562 " clip-rule="nonzero"/></clipPath><clipPath id="235ea6cf09"><path d="M 1.851562 30 L 14 30 L 14 34.664062 L 1.851562 34.664062 Z M 1.851562 30 " clip-rule="nonzero"/></clipPath></defs><g clip-path="url(#be81e8a001)"><path fill="#ffcc71" d="M 35.148438 14.304688 C 35.148438 14.433594 35.113281 14.5625 35.042969 14.6875 C 34.972656 14.816406 34.867188 14.9375 34.726562 15.058594 C 34.585938 15.179688 34.414062 15.292969 34.210938 15.398438 C 34.007812 15.507812 33.777344 15.605469 33.515625 15.699219 C 33.257812 15.789062 32.976562 15.871094 32.671875 15.945312 C 32.367188 16.015625 32.046875 16.078125 31.707031 16.125 C 31.371094 16.175781 31.023438 16.210938 30.664062 16.238281 C 30.304688 16.261719 29.941406 16.277344 29.574219 16.277344 C 29.210938 16.277344 28.847656 16.261719 28.488281 16.238281 C 28.128906 16.210938 27.78125 16.175781 27.441406 16.125 C 27.105469 16.078125 26.785156 16.015625 26.480469 15.945312 C 26.175781 15.871094 25.894531 15.789062 25.632812 15.699219 C 25.375 15.605469 25.144531 15.507812 24.941406 15.398438 C 24.738281 15.292969 24.566406 15.179688 24.425781 15.058594 C 24.285156 14.9375 24.179688 14.816406 24.109375 14.6875 C 24.039062 14.5625 24 14.433594 24 14.304688 C 24 14.171875 24.039062 14.046875 24.109375 13.917969 C 24.179688 13.792969 24.285156 13.667969 24.425781 13.546875 C 24.566406 13.429688 24.738281 13.316406 24.941406 13.207031 C 25.144531 13.101562 25.375 13 25.632812 12.910156 C 25.894531 12.816406 26.175781 12.734375 26.480469 12.664062 C 26.785156 12.589844 27.105469 12.53125 27.441406 12.480469 C 27.78125 12.429688 28.128906 12.394531 28.488281 12.367188 C 28.847656 12.34375 29.210938 12.332031 29.574219 12.332031 C 29.941406 12.332031 30.304688 12.34375 30.664062 12.367188 C 31.023438 12.394531 31.371094 12.429688 31.707031 12.480469 C 32.046875 12.53125 32.367188 12.589844 32.671875 12.664062 C 32.976562 12.734375 33.257812 12.816406 33.515625 12.910156 C 33.777344 13 34.007812 13.101562 34.210938 13.207031 C 34.414062 13.316406 34.585938 13.429688 34.726562 13.546875 C 34.867188 13.667969 34.972656 13.792969 35.042969 13.917969 C 35.113281 14.046875 35.148438 14.171875 35.148438 14.304688 Z M 35.148438 14.304688 " fill-opacity="1" fill-rule="nonzero"/></g><path fill="#c18c16" d="M 32.679688 14.304688 C 32.679688 14.449219 32.597656 14.589844 32.441406 14.722656 C 32.285156 14.859375 32.058594 14.976562 31.769531 15.078125 C 31.480469 15.183594 31.144531 15.261719 30.761719 15.316406 C 30.382812 15.375 29.988281 15.402344 29.574219 15.402344 C 29.164062 15.402344 28.769531 15.375 28.386719 15.316406 C 28.007812 15.261719 27.671875 15.183594 27.382812 15.078125 C 27.089844 14.976562 26.867188 14.859375 26.710938 14.722656 C 26.550781 14.589844 26.472656 14.449219 26.472656 14.304688 C 26.472656 14.15625 26.550781 14.019531 26.710938 13.882812 C 26.867188 13.75 27.089844 13.628906 27.382812 13.527344 C 27.671875 13.425781 28.007812 13.34375 28.386719 13.289062 C 28.769531 13.234375 29.164062 13.207031 29.574219 13.207031 C 29.988281 13.207031 30.382812 13.234375 30.761719 13.289062 C 31.144531 13.34375 31.480469 13.425781 31.769531 13.527344 C 32.058594 13.628906 32.285156 13.75 32.441406 13.882812 C 32.597656 14.019531 32.679688 14.15625 32.679688 14.304688 Z M 32.679688 14.304688 " fill-opacity="1" fill-rule="nonzero"/><g clip-path="url(#dad1e10d11)"><path fill="#e53434" d="M 29.574219 2.097656 C 29.113281 2.097656 28.664062 2.164062 28.222656 2.292969 C 27.777344 2.421875 27.363281 2.609375 26.976562 2.859375 C 26.589844 3.109375 26.246094 3.40625 25.949219 3.753906 C 25.648438 4.101562 25.40625 4.484375 25.214844 4.902344 C 25.027344 5.320312 24.902344 5.757812 24.84375 6.210938 C 24.78125 6.664062 24.785156 7.117188 24.855469 7.570312 C 24.929688 8.023438 25.0625 8.453125 25.257812 8.867188 C 25.457031 9.28125 25.707031 9.660156 26.015625 10 C 26.261719 10.269531 26.449219 10.574219 26.585938 10.910156 C 27.199219 12.449219 28.113281 13.664062 29.34375 14.53125 C 29.5 14.640625 29.652344 14.640625 29.808594 14.53125 C 31.039062 13.664062 31.953125 12.449219 32.566406 10.910156 C 32.695312 10.582031 32.875 10.289062 33.113281 10.027344 C 33.421875 9.6875 33.679688 9.308594 33.878906 8.894531 C 34.078125 8.480469 34.21875 8.046875 34.289062 7.59375 C 34.363281 7.140625 34.371094 6.6875 34.3125 6.230469 C 34.253906 5.777344 34.128906 5.339844 33.941406 4.917969 C 33.753906 4.5 33.511719 4.113281 33.210938 3.765625 C 32.914062 3.414062 32.570312 3.117188 32.179688 2.863281 C 31.792969 2.613281 31.378906 2.421875 30.933594 2.292969 C 30.492188 2.164062 30.039062 2.097656 29.574219 2.097656 Z M 29.574219 2.097656 " fill-opacity="1" fill-rule="nonzero"/></g><path fill="#a11d1d" d="M 33.230469 9.902344 C 33.191406 9.949219 33.152344 9.992188 33.113281 10.039062 C 32.875 10.300781 32.695312 10.59375 32.566406 10.921875 C 31.953125 12.460938 31.039062 13.675781 29.808594 14.542969 C 29.652344 14.652344 29.5 14.652344 29.34375 14.542969 C 28.113281 13.675781 27.199219 12.460938 26.585938 10.921875 C 26.449219 10.582031 26.261719 10.28125 26.015625 10.011719 C 25.984375 9.976562 25.953125 9.941406 25.921875 9.902344 L 28.597656 10.644531 C 29.25 10.828125 29.902344 10.828125 30.554688 10.644531 Z M 33.230469 9.902344 " fill-opacity="1" fill-rule="nonzero"/><path fill="#f0f4ff" d="M 31.753906 6.839844 C 31.753906 7.125 31.699219 7.402344 31.589844 7.667969 C 31.476562 7.933594 31.320312 8.167969 31.117188 8.371094 C 30.914062 8.574219 30.675781 8.730469 30.410156 8.839844 C 30.144531 8.949219 29.863281 9.003906 29.574219 9.003906 C 29.285156 9.003906 29.007812 8.949219 28.742188 8.839844 C 28.476562 8.730469 28.238281 8.574219 28.035156 8.371094 C 27.832031 8.167969 27.671875 7.933594 27.5625 7.667969 C 27.453125 7.402344 27.398438 7.125 27.398438 6.839844 C 27.398438 6.550781 27.453125 6.277344 27.5625 6.011719 C 27.671875 5.746094 27.832031 5.511719 28.035156 5.308594 C 28.238281 5.105469 28.476562 4.949219 28.742188 4.839844 C 29.007812 4.730469 29.285156 4.675781 29.574219 4.675781 C 29.863281 4.675781 30.144531 4.730469 30.410156 4.839844 C 30.675781 4.949219 30.914062 5.105469 31.117188 5.308594 C 31.320312 5.511719 31.476562 5.746094 31.589844 6.011719 C 31.699219 6.277344 31.753906 6.550781 31.753906 6.839844 Z M 31.753906 6.839844 " fill-opacity="1" fill-rule="nonzero"/><g clip-path="url(#235ea6cf09)"><path fill="#ffcc71" d="M 13.007812 32.6875 C 13.007812 32.820312 12.972656 32.945312 12.902344 33.074219 C 12.828125 33.199219 12.722656 33.324219 12.582031 33.445312 C 12.445312 33.5625 12.273438 33.675781 12.070312 33.785156 C 11.867188 33.894531 11.632812 33.992188 11.375 34.082031 C 11.117188 34.175781 10.835938 34.257812 10.53125 34.328125 C 10.226562 34.402344 9.90625 34.460938 9.566406 34.511719 C 9.230469 34.5625 8.878906 34.597656 8.523438 34.625 C 8.164062 34.648438 7.800781 34.660156 7.433594 34.660156 C 7.066406 34.660156 6.707031 34.648438 6.347656 34.625 C 5.988281 34.597656 5.640625 34.5625 5.300781 34.511719 C 4.964844 34.460938 4.640625 34.402344 4.335938 34.328125 C 4.03125 34.257812 3.75 34.175781 3.492188 34.082031 C 3.234375 33.992188 3.003906 33.894531 2.800781 33.785156 C 2.597656 33.675781 2.425781 33.5625 2.285156 33.445312 C 2.144531 33.324219 2.039062 33.199219 1.96875 33.074219 C 1.894531 32.945312 1.859375 32.820312 1.859375 32.6875 C 1.859375 32.558594 1.894531 32.429688 1.96875 32.304688 C 2.039062 32.175781 2.144531 32.054688 2.285156 31.933594 C 2.425781 31.8125 2.597656 31.699219 2.800781 31.59375 C 3.003906 31.484375 3.234375 31.386719 3.492188 31.292969 C 3.75 31.203125 4.03125 31.121094 4.335938 31.046875 C 4.640625 30.976562 4.964844 30.914062 5.300781 30.867188 C 5.640625 30.816406 5.988281 30.78125 6.347656 30.753906 C 6.707031 30.730469 7.066406 30.714844 7.433594 30.714844 C 7.800781 30.714844 8.164062 30.730469 8.523438 30.753906 C 8.878906 30.78125 9.230469 30.816406 9.566406 30.867188 C 9.90625 30.914062 10.226562 30.976562 10.53125 31.046875 C 10.835938 31.121094 11.117188 31.203125 11.375 31.292969 C 11.632812 31.386719 11.867188 31.484375 12.070312 31.59375 C 12.273438 31.699219 12.445312 31.8125 12.582031 31.933594 C 12.722656 32.054688 12.828125 32.175781 12.902344 32.304688 C 12.972656 32.429688 13.007812 32.558594 13.007812 32.6875 Z M 13.007812 32.6875 " fill-opacity="1" fill-rule="nonzero"/></g><path fill="#c18c16" d="M 10.535156 32.6875 C 10.535156 32.835938 10.457031 32.976562 10.300781 33.109375 C 10.144531 33.242188 9.917969 33.363281 9.628906 33.464844 C 9.335938 33.566406 9 33.648438 8.621094 33.703125 C 8.242188 33.757812 7.84375 33.785156 7.433594 33.785156 C 7.023438 33.785156 6.628906 33.757812 6.246094 33.703125 C 5.867188 33.648438 5.53125 33.566406 5.242188 33.464844 C 4.949219 33.363281 4.726562 33.242188 4.566406 33.109375 C 4.410156 32.976562 4.332031 32.835938 4.332031 32.6875 C 4.332031 32.542969 4.410156 32.402344 4.566406 32.269531 C 4.726562 32.132812 4.949219 32.015625 5.242188 31.914062 C 5.53125 31.808594 5.867188 31.730469 6.246094 31.675781 C 6.628906 31.617188 7.023438 31.589844 7.433594 31.589844 C 7.84375 31.589844 8.242188 31.617188 8.621094 31.675781 C 9 31.730469 9.335938 31.808594 9.628906 31.914062 C 9.917969 32.015625 10.144531 32.132812 10.300781 32.269531 C 10.457031 32.402344 10.535156 32.542969 10.535156 32.6875 Z M 10.535156 32.6875 " fill-opacity="1" fill-rule="nonzero"/><path fill="#e53434" d="M 12.210938 25.226562 C 12.210938 26.378906 11.835938 27.398438 11.085938 28.277344 C 11.050781 28.324219 11.011719 28.367188 10.96875 28.410156 C 10.734375 28.671875 10.550781 28.96875 10.425781 29.296875 C 9.808594 30.835938 8.898438 32.050781 7.664062 32.917969 C 7.511719 33.027344 7.355469 33.027344 7.203125 32.917969 C 5.972656 32.050781 5.058594 30.835938 4.445312 29.296875 C 4.308594 28.957031 4.117188 28.65625 3.875 28.386719 C 3.84375 28.351562 3.8125 28.316406 3.78125 28.277344 C 3.535156 27.984375 3.324219 27.667969 3.152344 27.328125 C 2.984375 26.984375 2.855469 26.628906 2.773438 26.257812 C 2.691406 25.886719 2.652344 25.507812 2.660156 25.125 C 2.667969 24.746094 2.722656 24.371094 2.820312 24.003906 C 2.917969 23.632812 3.0625 23.28125 3.246094 22.949219 C 3.429688 22.613281 3.652344 22.304688 3.910156 22.023438 C 4.167969 21.742188 4.460938 21.496094 4.777344 21.285156 C 5.097656 21.070312 5.4375 20.902344 5.796875 20.769531 C 6.160156 20.640625 6.53125 20.554688 6.910156 20.511719 C 7.292969 20.46875 7.675781 20.472656 8.054688 20.523438 C 8.4375 20.574219 8.804688 20.667969 9.164062 20.804688 C 9.519531 20.941406 9.859375 21.121094 10.171875 21.339844 C 10.488281 21.558594 10.769531 21.8125 11.023438 22.097656 C 11.277344 22.382812 11.492188 22.695312 11.671875 23.035156 C 11.847656 23.375 11.980469 23.726562 12.074219 24.097656 C 12.164062 24.46875 12.210938 24.84375 12.210938 25.226562 Z M 12.210938 25.226562 " fill-opacity="1" fill-rule="nonzero"/><path fill="#f0f4ff" d="M 9.613281 25.226562 C 9.613281 25.40625 9.589844 25.582031 9.546875 25.757812 C 9.5 25.933594 9.433594 26.097656 9.347656 26.257812 C 9.257812 26.414062 9.152344 26.5625 9.03125 26.691406 C 8.90625 26.824219 8.769531 26.941406 8.613281 27.039062 C 8.460938 27.136719 8.300781 27.210938 8.128906 27.269531 C 7.953125 27.328125 7.777344 27.363281 7.597656 27.375 C 7.414062 27.386719 7.234375 27.378906 7.054688 27.347656 C 6.878906 27.316406 6.707031 27.261719 6.539062 27.1875 C 6.375 27.113281 6.222656 27.019531 6.078125 26.90625 C 5.9375 26.792969 5.8125 26.664062 5.703125 26.519531 C 5.59375 26.375 5.503906 26.222656 5.433594 26.054688 C 5.363281 25.890625 5.3125 25.714844 5.289062 25.539062 C 5.261719 25.359375 5.257812 25.179688 5.273438 25 C 5.292969 24.820312 5.335938 24.648438 5.398438 24.476562 C 5.460938 24.308594 5.542969 24.148438 5.644531 24 C 5.746094 23.851562 5.867188 23.71875 6.003906 23.597656 C 6.140625 23.480469 6.289062 23.378906 6.453125 23.296875 C 6.613281 23.214844 6.78125 23.152344 6.960938 23.113281 C 7.136719 23.074219 7.316406 23.058594 7.5 23.0625 C 7.679688 23.066406 7.859375 23.09375 8.035156 23.144531 C 8.207031 23.191406 8.375 23.261719 8.53125 23.355469 C 8.6875 23.445312 8.832031 23.554688 8.960938 23.679688 C 9.089844 23.804688 9.203125 23.945312 9.296875 24.101562 C 9.390625 24.253906 9.464844 24.417969 9.519531 24.589844 C 9.582031 24.796875 9.613281 25.007812 9.613281 25.226562 Z M 9.613281 25.226562 " fill-opacity="1" fill-rule="nonzero"/><path fill="#1271b1" d="M 20.757812 33.109375 L 20.75 33.109375 C 20.371094 33.109375 19.929688 33.105469 19.328125 33.097656 C 19.230469 33.097656 19.148438 33.0625 19.078125 32.992188 C 19.007812 32.921875 18.976562 32.839844 18.976562 32.742188 C 18.976562 32.644531 19.011719 32.558594 19.082031 32.492188 C 19.152344 32.421875 19.234375 32.390625 19.335938 32.390625 L 19.339844 32.390625 C 19.9375 32.398438 20.375 32.402344 20.75 32.402344 L 20.757812 32.402344 C 21.320312 32.402344 21.769531 32.394531 22.167969 32.375 C 22.265625 32.371094 22.351562 32.402344 22.425781 32.46875 C 22.496094 32.535156 22.535156 32.613281 22.539062 32.710938 C 22.542969 32.808594 22.511719 32.894531 22.449219 32.96875 C 22.382812 33.039062 22.296875 33.078125 22.199219 33.082031 C 21.789062 33.101562 21.332031 33.109375 20.757812 33.109375 Z M 16.484375 33.054688 L 16.480469 33.054688 C 15.675781 33.046875 14.921875 33.042969 14.179688 33.042969 C 14.082031 33.042969 14 33.007812 13.929688 32.9375 C 13.859375 32.871094 13.824219 32.785156 13.824219 32.6875 C 13.824219 32.589844 13.859375 32.507812 13.929688 32.4375 C 14 32.371094 14.082031 32.335938 14.179688 32.335938 C 14.925781 32.335938 15.679688 32.339844 16.488281 32.347656 C 16.585938 32.347656 16.667969 32.382812 16.738281 32.453125 C 16.808594 32.523438 16.84375 32.605469 16.839844 32.703125 C 16.839844 32.800781 16.804688 32.886719 16.734375 32.953125 C 16.667969 33.023438 16.582031 33.054688 16.484375 33.054688 Z M 24.972656 32.574219 C 24.777344 32.574219 24.660156 32.480469 24.621094 32.289062 C 24.585938 32.097656 24.65625 31.96875 24.839844 31.894531 C 25.304688 31.699219 25.742188 31.453125 26.148438 31.152344 C 26.457031 30.925781 26.730469 30.65625 26.960938 30.351562 C 27.019531 30.273438 27.097656 30.230469 27.195312 30.214844 C 27.292969 30.203125 27.382812 30.226562 27.460938 30.285156 C 27.539062 30.34375 27.582031 30.421875 27.597656 30.519531 C 27.609375 30.617188 27.585938 30.703125 27.527344 30.78125 C 27.253906 31.140625 26.933594 31.457031 26.570312 31.722656 C 26.117188 32.058594 25.628906 32.335938 25.105469 32.550781 C 25.0625 32.566406 25.019531 32.574219 24.972656 32.574219 Z M 28.320312 28.328125 C 28.210938 28.328125 28.121094 28.289062 28.050781 28.207031 C 27.980469 28.121094 27.953125 28.027344 27.96875 27.921875 C 28.019531 27.605469 28.046875 27.289062 28.046875 26.96875 C 28.046875 26.394531 27.964844 25.832031 27.792969 25.28125 C 27.761719 25.1875 27.769531 25.09375 27.816406 25.007812 C 27.859375 24.917969 27.929688 24.859375 28.027344 24.832031 C 28.121094 24.800781 28.210938 24.8125 28.300781 24.859375 C 28.386719 24.90625 28.445312 24.976562 28.472656 25.070312 C 28.664062 25.6875 28.761719 26.320312 28.757812 26.96875 C 28.757812 27.324219 28.730469 27.679688 28.671875 28.03125 C 28.640625 28.230469 28.523438 28.328125 28.320312 28.328125 Z M 26.628906 23.164062 C 26.539062 23.164062 26.457031 23.132812 26.390625 23.070312 C 25.945312 22.671875 25.445312 22.351562 24.890625 22.117188 C 24.617188 22.003906 24.335938 21.914062 24.046875 21.84375 C 23.953125 21.816406 23.882812 21.765625 23.832031 21.679688 C 23.785156 21.597656 23.773438 21.507812 23.796875 21.414062 C 23.820312 21.320312 23.875 21.25 23.957031 21.199219 C 24.039062 21.148438 24.128906 21.136719 24.222656 21.15625 C 25.226562 21.394531 26.109375 21.859375 26.871094 22.546875 C 26.992188 22.65625 27.023438 22.785156 26.960938 22.9375 C 26.902344 23.085938 26.792969 23.164062 26.628906 23.164062 Z M 21.320312 21.390625 C 21.304688 21.390625 21.289062 21.390625 21.277344 21.386719 C 21.125 21.371094 20.972656 21.351562 20.820312 21.332031 C 20.035156 21.234375 19.21875 21.132812 18.433594 21.003906 C 18.335938 20.988281 18.257812 20.941406 18.199219 20.863281 C 18.144531 20.78125 18.125 20.695312 18.140625 20.597656 C 18.15625 20.5 18.203125 20.425781 18.285156 20.367188 C 18.363281 20.3125 18.453125 20.292969 18.550781 20.308594 C 19.320312 20.433594 20.128906 20.535156 20.90625 20.628906 C 21.0625 20.648438 21.214844 20.667969 21.363281 20.6875 C 21.457031 20.699219 21.535156 20.738281 21.59375 20.8125 C 21.65625 20.882812 21.683594 20.964844 21.675781 21.058594 C 21.671875 21.152344 21.632812 21.230469 21.5625 21.296875 C 21.496094 21.359375 21.414062 21.390625 21.320312 21.390625 Z M 15.730469 20.316406 C 15.683594 20.316406 15.640625 20.308594 15.597656 20.292969 C 14.363281 19.804688 13.625 19.136719 13.339844 18.253906 C 13.308594 18.160156 13.316406 18.070312 13.359375 17.984375 C 13.40625 17.894531 13.476562 17.835938 13.570312 17.808594 C 13.664062 17.777344 13.753906 17.785156 13.839844 17.828125 C 13.929688 17.875 13.988281 17.941406 14.015625 18.035156 C 14.234375 18.707031 14.835938 19.230469 15.859375 19.632812 C 16.042969 19.707031 16.117188 19.835938 16.078125 20.027344 C 16.042969 20.21875 15.925781 20.316406 15.730469 20.316406 Z M 14.550781 15.996094 C 14.378906 15.996094 14.265625 15.917969 14.210938 15.757812 C 14.15625 15.597656 14.199219 15.464844 14.332031 15.363281 C 15.097656 14.78125 15.992188 14.394531 17.070312 14.179688 C 17.167969 14.160156 17.253906 14.179688 17.335938 14.234375 C 17.414062 14.289062 17.464844 14.363281 17.484375 14.457031 C 17.503906 14.550781 17.484375 14.640625 17.433594 14.71875 C 17.378906 14.800781 17.304688 14.851562 17.210938 14.871094 C 16.242188 15.066406 15.441406 15.410156 14.765625 15.925781 C 14.703125 15.972656 14.628906 15.996094 14.550781 15.996094 Z M 22.828125 14.839844 C 22.820312 14.839844 22.8125 14.839844 22.804688 14.839844 C 22.574219 14.824219 22.339844 14.808594 22.105469 14.792969 C 21.402344 14.746094 20.679688 14.699219 19.972656 14.683594 C 19.875 14.679688 19.789062 14.644531 19.722656 14.574219 C 19.65625 14.503906 19.621094 14.417969 19.625 14.320312 C 19.625 14.222656 19.664062 14.140625 19.734375 14.074219 C 19.804688 14.003906 19.890625 13.972656 19.988281 13.972656 C 20.710938 13.992188 21.445312 14.039062 22.152344 14.085938 C 22.386719 14.101562 22.617188 14.117188 22.847656 14.132812 C 22.945312 14.140625 23.027344 14.175781 23.089844 14.25 C 23.15625 14.320312 23.1875 14.402344 23.183594 14.496094 C 23.179688 14.59375 23.144531 14.675781 23.074219 14.742188 C 23.007812 14.808594 22.921875 14.839844 22.828125 14.839844 Z M 22.828125 14.839844 " fill-opacity="1" fill-rule="nonzero"/><path fill="#a11d1d" d="M 11.085938 28.277344 C 11.050781 28.324219 11.011719 28.367188 10.96875 28.410156 C 10.734375 28.671875 10.550781 28.96875 10.425781 29.296875 C 9.808594 30.835938 8.898438 32.050781 7.664062 32.917969 C 7.511719 33.027344 7.355469 33.027344 7.203125 32.917969 C 5.972656 32.050781 5.058594 30.835938 4.445312 29.296875 C 4.308594 28.957031 4.117188 28.65625 3.875 28.386719 C 3.84375 28.351562 3.8125 28.316406 3.78125 28.277344 L 6.457031 29.019531 C 7.109375 29.199219 7.761719 29.199219 8.414062 29.019531 Z M 11.085938 28.277344 " fill-opacity="1" fill-rule="nonzero"/><path fill="#c0d8ff" d="M 9.613281 25.226562 C 9.613281 25.652344 9.496094 26.042969 9.261719 26.402344 C 9.03125 26.757812 8.71875 27.027344 8.324219 27.199219 C 7.933594 27.375 7.527344 27.429688 7.101562 27.363281 C 6.675781 27.296875 6.304688 27.125 5.984375 26.839844 C 7.183594 26.929688 8.851562 26.644531 9.519531 24.589844 C 9.582031 24.796875 9.613281 25.007812 9.613281 25.226562 Z M 9.613281 25.226562 " fill-opacity="1" fill-rule="nonzero"/><path fill="#c0d8ff" d="M 31.753906 6.839844 C 31.753906 7.265625 31.636719 7.65625 31.40625 8.015625 C 31.171875 8.375 30.859375 8.640625 30.464844 8.8125 C 30.074219 8.988281 29.667969 9.042969 29.242188 8.976562 C 28.816406 8.914062 28.445312 8.738281 28.125 8.453125 C 29.324219 8.542969 30.992188 8.257812 31.660156 6.203125 C 31.722656 6.410156 31.753906 6.625 31.753906 6.839844 Z M 31.753906 6.839844 " fill-opacity="1" fill-rule="nonzero"/></svg>