<svg xmlns="http://www.w3.org/2000/svg" xmlns:xlink="http://www.w3.org/1999/xlink" width="50" zoomAndPan="magnify" viewBox="0 0 37.5 37.499999" height="50" preserveAspectRatio="xMidYMid meet" version="1.0"><defs><clipPath id="ca0a64cfb1"><path d="M 1.429688 29 L 11 29 L 11 35.808594 L 1.429688 35.808594 Z M 1.429688 29 " clip-rule="nonzero"/></clipPath><clipPath id="d1f455628f"><path d="M 1.429688 28 L 11 28 L 11 35.808594 L 1.429688 35.808594 Z M 1.429688 28 " clip-rule="nonzero"/></clipPath><clipPath id="e30f79b23c"><path d="M 21 1.023438 L 35.476562 1.023438 L 35.476562 23 L 21 23 Z M 21 1.023438 " clip-rule="nonzero"/></clipPath></defs><g clip-path="url(#ca0a64cfb1)"><path fill="#ffffff" d="M 9.511719 29.21875 C 8.476562 29.753906 7.460938 30.308594 6.457031 30.882812 C 5.460938 31.460938 4.476562 32.058594 3.507812 32.683594 C 2.960938 33.035156 2.417969 33.394531 1.878906 33.765625 C 1.699219 33.882812 1.558594 34.042969 1.5 34.253906 C 1.445312 34.449219 1.472656 34.714844 1.578125 34.890625 C 1.695312 35.0625 1.863281 35.222656 2.070312 35.269531 C 2.277344 35.320312 2.519531 35.3125 2.707031 35.1875 C 3.660156 34.535156 4.636719 33.90625 5.625 33.296875 C 6.601562 32.695312 7.601562 32.117188 8.609375 31.5625 C 9.179688 31.246094 9.753906 30.941406 10.335938 30.644531 C 10.515625 30.550781 10.664062 30.339844 10.71875 30.15625 C 10.773438 29.960938 10.746094 29.691406 10.636719 29.519531 C 10.523438 29.34375 10.355469 29.1875 10.148438 29.136719 C 9.925781 29.082031 9.71875 29.117188 9.511719 29.21875 Z M 9.511719 29.21875 " fill-opacity="1" fill-rule="nonzero"/></g><g clip-path="url(#d1f455628f)"><path fill="#ffffff" d="M 2.128906 30.199219 C 3.109375 30.933594 4.082031 31.671875 5.058594 32.40625 C 6.039062 33.140625 7.011719 33.878906 7.988281 34.613281 C 8.539062 35.027344 9.085938 35.4375 9.636719 35.855469 C 9.730469 35.917969 9.832031 35.949219 9.941406 35.957031 C 10.050781 35.980469 10.15625 35.976562 10.265625 35.9375 C 10.457031 35.882812 10.664062 35.738281 10.757812 35.558594 C 10.859375 35.367188 10.910156 35.132812 10.835938 34.921875 C 10.808594 34.855469 10.785156 34.792969 10.757812 34.726562 C 10.683594 34.601562 10.582031 34.503906 10.460938 34.433594 C 9.484375 33.699219 8.511719 32.960938 7.53125 32.226562 C 6.554688 31.492188 5.582031 30.753906 4.601562 30.019531 C 4.054688 29.605469 3.503906 29.191406 2.957031 28.773438 C 2.863281 28.714844 2.757812 28.683594 2.652344 28.675781 C 2.542969 28.648438 2.433594 28.65625 2.324219 28.691406 C 2.132812 28.746094 1.929688 28.894531 1.835938 29.074219 C 1.730469 29.261719 1.683594 29.496094 1.753906 29.710938 C 1.78125 29.773438 1.808594 29.839844 1.835938 29.90625 C 1.910156 30.03125 2.007812 30.128906 2.128906 30.199219 Z M 2.128906 30.199219 " fill-opacity="1" fill-rule="nonzero"/></g><path fill="#ffffff" d="M 7.445312 26.246094 C 7.449219 26.144531 7.460938 26.035156 7.476562 25.929688 C 7.46875 26 7.457031 26.078125 7.449219 26.148438 C 7.503906 25.746094 7.613281 25.347656 7.773438 24.972656 C 7.746094 25.039062 7.71875 25.105469 7.691406 25.171875 C 7.847656 24.800781 8.050781 24.457031 8.289062 24.136719 C 8.246094 24.191406 8.199219 24.246094 8.15625 24.304688 C 8.398438 23.996094 8.675781 23.71875 8.984375 23.480469 C 8.929688 23.523438 8.875 23.566406 8.816406 23.609375 C 9.136719 23.363281 9.484375 23.164062 9.855469 23.007812 C 9.789062 23.035156 9.722656 23.0625 9.65625 23.089844 C 9.972656 22.957031 10.304688 22.859375 10.648438 22.800781 C 10.835938 22.765625 11.042969 22.582031 11.136719 22.417969 C 11.238281 22.246094 11.285156 21.984375 11.21875 21.785156 C 11.152344 21.582031 11.027344 21.390625 10.835938 21.292969 C 10.773438 21.265625 10.707031 21.238281 10.640625 21.210938 C 10.496094 21.175781 10.347656 21.175781 10.203125 21.210938 C 9.738281 21.292969 9.304688 21.453125 8.875 21.648438 C 8.449219 21.84375 8.074219 22.105469 7.71875 22.390625 C 7.351562 22.691406 7.042969 23.042969 6.769531 23.429688 C 6.496094 23.816406 6.289062 24.246094 6.117188 24.6875 C 5.929688 25.1875 5.832031 25.714844 5.796875 26.246094 C 5.789062 26.449219 5.902344 26.6875 6.039062 26.828125 C 6.179688 26.96875 6.414062 27.078125 6.621094 27.066406 C 6.832031 27.054688 7.054688 26.984375 7.199219 26.828125 C 7.246094 26.773438 7.289062 26.71875 7.332031 26.660156 C 7.40625 26.527344 7.445312 26.394531 7.445312 26.246094 Z M 7.445312 26.246094 " fill-opacity="1" fill-rule="nonzero"/><path fill="#ffffff" d="M 13.695312 21.832031 C 13.785156 21.863281 13.871094 21.898438 13.957031 21.929688 C 13.894531 21.902344 13.828125 21.875 13.761719 21.847656 C 14.125 22 14.46875 22.207031 14.785156 22.445312 C 14.730469 22.402344 14.675781 22.359375 14.617188 22.316406 C 14.941406 22.566406 15.230469 22.859375 15.480469 23.1875 C 15.4375 23.132812 15.394531 23.078125 15.347656 23.015625 C 15.601562 23.34375 15.804688 23.695312 15.96875 24.078125 C 15.941406 24.011719 15.914062 23.945312 15.886719 23.882812 C 16.023438 24.203125 16.121094 24.539062 16.179688 24.886719 C 16.207031 24.996094 16.257812 25.089844 16.328125 25.164062 C 16.386719 25.25 16.464844 25.320312 16.554688 25.375 C 16.730469 25.480469 16.992188 25.523438 17.191406 25.457031 C 17.394531 25.394531 17.582031 25.269531 17.683594 25.078125 C 17.707031 25.011719 17.734375 24.945312 17.761719 24.882812 C 17.800781 24.734375 17.800781 24.589844 17.761719 24.441406 C 17.707031 24.117188 17.617188 23.792969 17.496094 23.488281 C 17.351562 23.121094 17.179688 22.765625 16.957031 22.441406 C 16.519531 21.789062 15.964844 21.234375 15.304688 20.800781 C 14.941406 20.558594 14.546875 20.378906 14.136719 20.234375 C 13.941406 20.167969 13.675781 20.21875 13.5 20.316406 C 13.332031 20.414062 13.167969 20.609375 13.121094 20.804688 C 13.070312 21.015625 13.082031 21.25 13.203125 21.441406 C 13.246094 21.496094 13.289062 21.550781 13.332031 21.609375 C 13.441406 21.722656 13.5625 21.792969 13.695312 21.832031 Z M 13.695312 21.832031 " fill-opacity="1" fill-rule="nonzero"/><path fill="#ffffff" d="M 17.636719 27.839844 C 17.574219 28.398438 17.628906 28.96875 17.757812 29.511719 C 17.816406 29.757812 17.894531 29.996094 17.992188 30.226562 C 18.109375 30.511719 18.242188 30.789062 18.40625 31.058594 C 18.566406 31.316406 18.757812 31.566406 18.964844 31.796875 C 19.15625 32.003906 19.367188 32.1875 19.589844 32.355469 C 20.0625 32.722656 20.578125 32.992188 21.144531 33.183594 C 21.40625 33.269531 21.671875 33.335938 21.945312 33.371094 C 22.292969 33.421875 22.632812 33.453125 22.980469 33.433594 C 23.199219 33.421875 23.40625 33.351562 23.5625 33.195312 C 23.703125 33.050781 23.8125 32.820312 23.800781 32.613281 C 23.792969 32.398438 23.722656 32.175781 23.5625 32.03125 C 23.40625 31.890625 23.199219 31.773438 22.980469 31.792969 C 22.714844 31.808594 22.449219 31.796875 22.183594 31.765625 C 22.253906 31.773438 22.328125 31.785156 22.398438 31.792969 C 22.015625 31.738281 21.640625 31.632812 21.273438 31.488281 C 21.339844 31.515625 21.40625 31.542969 21.46875 31.566406 C 21.121094 31.421875 20.800781 31.230469 20.503906 31.003906 C 20.558594 31.046875 20.613281 31.089844 20.671875 31.132812 C 20.390625 30.914062 20.140625 30.664062 19.921875 30.382812 C 19.964844 30.4375 20.007812 30.492188 20.050781 30.550781 C 19.828125 30.257812 19.636719 29.9375 19.496094 29.59375 C 19.523438 29.660156 19.550781 29.726562 19.578125 29.789062 C 19.425781 29.425781 19.324219 29.050781 19.269531 28.660156 C 19.28125 28.730469 19.289062 28.808594 19.296875 28.878906 C 19.253906 28.53125 19.246094 28.179688 19.285156 27.839844 C 19.289062 27.726562 19.261719 27.621094 19.214844 27.523438 C 19.183594 27.421875 19.121094 27.332031 19.046875 27.257812 C 18.90625 27.117188 18.671875 27.007812 18.464844 27.019531 C 18.253906 27.027344 18.03125 27.101562 17.882812 27.257812 C 17.839844 27.3125 17.796875 27.367188 17.753906 27.425781 C 17.675781 27.550781 17.636719 27.691406 17.636719 27.839844 Z M 17.636719 27.839844 " fill-opacity="1" fill-rule="nonzero"/><path fill="#ffffff" d="M 26.6875 31.324219 C 27.316406 30.632812 27.839844 29.84375 28.210938 28.984375 C 28.414062 28.523438 28.585938 28.054688 28.710938 27.566406 C 28.835938 27.082031 28.914062 26.589844 28.960938 26.089844 C 29.003906 25.597656 29.003906 25.105469 28.960938 24.617188 C 28.96875 24.5 28.941406 24.398438 28.890625 24.300781 C 28.859375 24.195312 28.796875 24.109375 28.722656 24.035156 C 28.582031 23.890625 28.347656 23.785156 28.140625 23.792969 C 27.929688 23.804688 27.707031 23.875 27.558594 24.035156 C 27.417969 24.1875 27.296875 24.402344 27.320312 24.617188 C 27.378906 25.21875 27.363281 25.824219 27.28125 26.421875 C 27.292969 26.347656 27.304688 26.273438 27.308594 26.203125 C 27.210938 26.921875 27.019531 27.617188 26.738281 28.285156 C 26.765625 28.21875 26.792969 28.15625 26.820312 28.089844 C 26.546875 28.726562 26.199219 29.328125 25.78125 29.878906 C 25.824219 29.824219 25.867188 29.769531 25.910156 29.710938 C 25.792969 29.867188 25.660156 30.019531 25.53125 30.164062 C 25.382812 30.328125 25.292969 30.523438 25.292969 30.746094 C 25.292969 30.949219 25.378906 31.1875 25.53125 31.328125 C 25.6875 31.46875 25.894531 31.578125 26.113281 31.566406 C 26.320312 31.558594 26.542969 31.488281 26.6875 31.324219 Z M 26.6875 31.324219 " fill-opacity="1" fill-rule="nonzero"/><g clip-path="url(#e30f79b23c)"><path fill="#ffffff" d="M 28.570312 21.265625 C 27.492188 19.5 26.335938 17.78125 25.382812 15.9375 C 25.113281 15.417969 24.863281 14.890625 24.632812 14.351562 C 24.660156 14.417969 24.6875 14.484375 24.714844 14.546875 C 24.210938 13.339844 23.824219 12.078125 23.652344 10.78125 C 23.660156 10.851562 23.671875 10.925781 23.675781 10.996094 C 23.550781 10.070312 23.535156 9.121094 23.660156 8.1875 C 23.652344 8.257812 23.640625 8.335938 23.632812 8.40625 C 23.730469 7.699219 23.910156 7.003906 24.1875 6.34375 C 24.160156 6.410156 24.132812 6.476562 24.105469 6.539062 C 24.367188 5.925781 24.707031 5.34375 25.113281 4.816406 C 25.070312 4.871094 25.027344 4.925781 24.980469 4.984375 C 25.351562 4.507812 25.777344 4.078125 26.253906 3.707031 C 26.199219 3.75 26.144531 3.796875 26.085938 3.839844 C 26.5 3.523438 26.945312 3.257812 27.421875 3.050781 C 27.359375 3.078125 27.292969 3.105469 27.226562 3.132812 C 27.671875 2.941406 28.140625 2.8125 28.625 2.746094 C 28.554688 2.757812 28.476562 2.769531 28.40625 2.773438 C 28.902344 2.707031 29.402344 2.707031 29.902344 2.777344 C 29.832031 2.769531 29.753906 2.757812 29.683594 2.75 C 30.179688 2.820312 30.664062 2.953125 31.125 3.148438 C 31.058594 3.121094 30.996094 3.09375 30.929688 3.066406 C 31.371094 3.25 31.78125 3.496094 32.164062 3.785156 C 32.109375 3.742188 32.054688 3.699219 31.996094 3.652344 C 32.359375 3.9375 32.679688 4.261719 32.960938 4.625 C 32.917969 4.574219 32.875 4.519531 32.832031 4.457031 C 33.132812 4.84375 33.382812 5.269531 33.570312 5.71875 C 33.542969 5.65625 33.515625 5.589844 33.488281 5.523438 C 33.679688 5.976562 33.8125 6.449219 33.882812 6.933594 C 33.871094 6.859375 33.859375 6.785156 33.855469 6.714844 C 33.925781 7.242188 33.917969 7.769531 33.847656 8.296875 C 33.859375 8.226562 33.871094 8.148438 33.875 8.078125 C 33.777344 8.785156 33.570312 9.464844 33.300781 10.121094 C 33.328125 10.058594 33.355469 9.992188 33.382812 9.925781 C 32.695312 11.550781 31.597656 12.945312 30.582031 14.367188 C 29.574219 15.769531 28.699219 17.25 27.992188 18.824219 C 27.574219 19.765625 27.207031 20.730469 26.894531 21.707031 C 26.765625 22.121094 27.046875 22.621094 27.472656 22.71875 C 27.917969 22.820312 28.347656 22.582031 28.484375 22.140625 C 28.71875 21.386719 28.988281 20.648438 29.292969 19.917969 C 29.265625 19.984375 29.238281 20.050781 29.210938 20.113281 C 29.851562 18.59375 30.648438 17.140625 31.582031 15.78125 C 32.53125 14.394531 33.613281 13.089844 34.398438 11.597656 C 34.800781 10.824219 35.140625 10.007812 35.339844 9.15625 C 35.441406 8.699219 35.511719 8.230469 35.535156 7.769531 C 35.554688 7.316406 35.515625 6.878906 35.453125 6.433594 C 35.339844 5.664062 35.054688 4.914062 34.664062 4.246094 C 34.277344 3.582031 33.765625 2.96875 33.164062 2.496094 C 32.820312 2.230469 32.46875 1.984375 32.078125 1.789062 C 31.695312 1.597656 31.289062 1.4375 30.878906 1.320312 C 30.101562 1.105469 29.269531 1.023438 28.46875 1.121094 C 28.070312 1.167969 27.679688 1.234375 27.292969 1.359375 C 26.921875 1.472656 26.5625 1.625 26.222656 1.800781 C 25.589844 2.121094 25.007812 2.554688 24.503906 3.050781 C 23.472656 4.054688 22.710938 5.355469 22.308594 6.742188 C 21.820312 8.414062 21.851562 10.195312 22.175781 11.894531 C 22.5 13.582031 23.152344 15.1875 23.933594 16.710938 C 24.707031 18.207031 25.613281 19.628906 26.503906 21.054688 C 26.722656 21.402344 26.9375 21.75 27.152344 22.105469 C 27.261719 22.285156 27.441406 22.425781 27.640625 22.484375 C 27.835938 22.539062 28.101562 22.511719 28.277344 22.402344 C 28.640625 22.160156 28.808594 21.664062 28.570312 21.265625 Z M 28.570312 21.265625 " fill-opacity="1" fill-rule="nonzero"/></g><path fill="#ffffff" d="M 28.359375 4.882812 C 28.15625 4.902344 27.960938 4.929688 27.765625 4.984375 C 27.574219 5.039062 27.390625 5.117188 27.214844 5.203125 C 26.921875 5.339844 26.65625 5.539062 26.417969 5.753906 C 26.171875 5.96875 25.960938 6.234375 25.785156 6.507812 C 25.714844 6.617188 25.65625 6.734375 25.601562 6.855469 C 25.519531 7.035156 25.445312 7.21875 25.382812 7.410156 C 25.296875 7.71875 25.25 8.058594 25.257812 8.382812 C 25.269531 8.710938 25.324219 9.046875 25.4375 9.355469 C 25.660156 9.96875 26.03125 10.535156 26.546875 10.945312 C 26.808594 11.15625 27.074219 11.339844 27.386719 11.476562 C 27.566406 11.550781 27.738281 11.628906 27.921875 11.675781 C 28.117188 11.730469 28.320312 11.753906 28.515625 11.78125 C 28.847656 11.820312 29.179688 11.78125 29.503906 11.722656 C 29.832031 11.65625 30.152344 11.53125 30.449219 11.378906 C 31.042969 11.078125 31.539062 10.605469 31.90625 10.058594 C 32.09375 9.78125 32.234375 9.46875 32.332031 9.15625 C 32.375 9.015625 32.40625 8.867188 32.429688 8.71875 C 32.460938 8.496094 32.488281 8.273438 32.484375 8.050781 C 32.46875 7.59375 32.359375 7.164062 32.15625 6.757812 C 32.070312 6.578125 31.945312 6.425781 31.828125 6.269531 C 31.746094 6.164062 31.648438 6.066406 31.550781 5.980469 C 31.398438 5.851562 31.238281 5.730469 31.070312 5.628906 C 30.902344 5.523438 30.722656 5.453125 30.542969 5.378906 C 30.222656 5.242188 29.890625 5.179688 29.542969 5.136719 C 29.414062 5.121094 29.28125 5.117188 29.152344 5.109375 C 28.941406 5.109375 28.71875 5.203125 28.570312 5.351562 C 28.429688 5.492188 28.320312 5.726562 28.332031 5.929688 C 28.34375 6.144531 28.414062 6.367188 28.570312 6.511719 C 28.734375 6.660156 28.929688 6.753906 29.152344 6.753906 C 29.289062 6.753906 29.429688 6.761719 29.566406 6.78125 C 29.496094 6.769531 29.417969 6.757812 29.347656 6.753906 C 29.609375 6.789062 29.863281 6.855469 30.109375 6.957031 C 30.042969 6.933594 29.976562 6.90625 29.914062 6.878906 C 30.109375 6.957031 30.300781 7.066406 30.46875 7.199219 C 30.414062 7.15625 30.359375 7.109375 30.300781 7.066406 C 30.441406 7.175781 30.570312 7.300781 30.679688 7.441406 C 30.636719 7.386719 30.59375 7.335938 30.550781 7.273438 C 30.648438 7.40625 30.726562 7.546875 30.792969 7.699219 C 30.765625 7.632812 30.738281 7.566406 30.710938 7.503906 C 30.78125 7.671875 30.832031 7.851562 30.851562 8.035156 C 30.84375 7.964844 30.832031 7.886719 30.828125 7.816406 C 30.851562 8.039062 30.851562 8.261719 30.828125 8.488281 C 30.835938 8.414062 30.847656 8.339844 30.851562 8.269531 C 30.820312 8.503906 30.761719 8.730469 30.667969 8.953125 C 30.695312 8.890625 30.722656 8.824219 30.75 8.757812 C 30.652344 8.988281 30.527344 9.199219 30.378906 9.394531 C 30.425781 9.339844 30.46875 9.285156 30.511719 9.226562 C 30.351562 9.433594 30.167969 9.617188 29.960938 9.773438 C 30.015625 9.730469 30.070312 9.6875 30.128906 9.644531 C 29.917969 9.808594 29.691406 9.945312 29.445312 10.046875 C 29.511719 10.019531 29.574219 9.992188 29.640625 9.964844 C 29.414062 10.058594 29.179688 10.121094 28.933594 10.15625 C 29.003906 10.144531 29.082031 10.132812 29.152344 10.128906 C 28.929688 10.15625 28.699219 10.15625 28.476562 10.128906 C 28.546875 10.140625 28.625 10.148438 28.695312 10.15625 C 28.46875 10.121094 28.242188 10.0625 28.03125 9.96875 C 28.097656 9.996094 28.164062 10.023438 28.226562 10.050781 C 28 9.953125 27.78125 9.828125 27.585938 9.675781 C 27.640625 9.71875 27.695312 9.765625 27.753906 9.808594 C 27.558594 9.65625 27.378906 9.476562 27.226562 9.28125 C 27.269531 9.335938 27.316406 9.390625 27.359375 9.449219 C 27.214844 9.265625 27.097656 9.058594 27.003906 8.839844 C 27.03125 8.90625 27.058594 8.96875 27.085938 9.035156 C 27 8.828125 26.9375 8.617188 26.914062 8.394531 C 26.921875 8.464844 26.933594 8.539062 26.9375 8.613281 C 26.914062 8.398438 26.914062 8.191406 26.9375 7.980469 C 26.929688 8.050781 26.917969 8.128906 26.914062 8.199219 C 26.945312 7.96875 27.003906 7.753906 27.097656 7.539062 C 27.070312 7.605469 27.042969 7.671875 27.015625 7.738281 C 27.109375 7.519531 27.226562 7.3125 27.375 7.128906 C 27.332031 7.183594 27.289062 7.234375 27.242188 7.296875 C 27.390625 7.109375 27.554688 6.941406 27.742188 6.796875 C 27.691406 6.839844 27.636719 6.882812 27.574219 6.925781 C 27.75 6.789062 27.945312 6.675781 28.144531 6.589844 C 28.082031 6.617188 28.015625 6.644531 27.949219 6.671875 C 28.140625 6.59375 28.335938 6.535156 28.539062 6.507812 C 28.46875 6.519531 28.390625 6.53125 28.320312 6.535156 C 28.34375 6.535156 28.359375 6.53125 28.378906 6.53125 C 28.492188 6.535156 28.597656 6.507812 28.695312 6.457031 C 28.796875 6.425781 28.886719 6.367188 28.960938 6.289062 C 29.101562 6.148438 29.210938 5.914062 29.199219 5.707031 C 29.191406 5.496094 29.121094 5.273438 28.960938 5.128906 C 28.789062 4.984375 28.570312 4.859375 28.359375 4.882812 Z M 28.359375 4.882812 " fill-opacity="1" fill-rule="nonzero"/></svg>