<svg xmlns="http://www.w3.org/2000/svg" xmlns:xlink="http://www.w3.org/1999/xlink" width="50" zoomAndPan="magnify" viewBox="0 0 37.5 37.499999" height="50" preserveAspectRatio="xMidYMid meet" version="1.0"><defs><clipPath id="007c21d94c"><path d="M 8 2.027344 L 29 2.027344 L 29 33 L 8 33 Z M 8 2.027344 " clip-rule="nonzero"/></clipPath><clipPath id="27ee008d64"><path d="M 5.167969 27 L 31.8125 27 L 31.8125 36.816406 L 5.167969 36.816406 Z M 5.167969 27 " clip-rule="nonzero"/></clipPath></defs><g clip-path="url(#007c21d94c)"><path fill="#e7422f" d="M 28.492188 12.019531 C 28.492188 17.515625 18.5 32.003906 18.5 32.003906 C 18.5 32.003906 8.511719 17.515625 8.511719 12.019531 C 8.511719 6.523438 13.007812 2.027344 18.5 2.027344 C 23.996094 2.027344 28.492188 6.523438 28.492188 12.019531 Z M 28.492188 12.019531 " fill-opacity="1" fill-rule="nonzero"/></g><path fill="#ffffff" d="M 24.332031 12.019531 C 24.332031 12.402344 24.292969 12.78125 24.21875 13.15625 C 24.144531 13.53125 24.035156 13.898438 23.886719 14.25 C 23.742188 14.605469 23.5625 14.941406 23.347656 15.257812 C 23.136719 15.578125 22.894531 15.871094 22.625 16.140625 C 22.351562 16.414062 22.058594 16.652344 21.738281 16.867188 C 21.421875 17.078125 21.085938 17.257812 20.730469 17.40625 C 20.378906 17.550781 20.015625 17.664062 19.640625 17.738281 C 19.261719 17.8125 18.882812 17.847656 18.5 17.847656 C 18.121094 17.847656 17.738281 17.8125 17.363281 17.738281 C 16.988281 17.664062 16.625 17.550781 16.269531 17.40625 C 15.917969 17.257812 15.582031 17.078125 15.265625 16.867188 C 14.945312 16.652344 14.652344 16.414062 14.378906 16.140625 C 14.109375 15.871094 13.867188 15.578125 13.65625 15.257812 C 13.441406 14.941406 13.261719 14.605469 13.117188 14.25 C 12.96875 13.898438 12.859375 13.53125 12.785156 13.15625 C 12.710938 12.78125 12.671875 12.402344 12.671875 12.019531 C 12.671875 11.636719 12.710938 11.257812 12.785156 10.882812 C 12.859375 10.507812 12.96875 10.144531 13.117188 9.789062 C 13.261719 9.4375 13.441406 9.101562 13.65625 8.78125 C 13.867188 8.464844 14.109375 8.167969 14.378906 7.898438 C 14.652344 7.628906 14.945312 7.386719 15.265625 7.175781 C 15.582031 6.960938 15.917969 6.78125 16.269531 6.636719 C 16.625 6.488281 16.988281 6.378906 17.363281 6.304688 C 17.738281 6.230469 18.121094 6.191406 18.5 6.191406 C 18.882812 6.191406 19.261719 6.230469 19.640625 6.304688 C 20.015625 6.378906 20.378906 6.488281 20.730469 6.636719 C 21.085938 6.78125 21.421875 6.960938 21.738281 7.175781 C 22.058594 7.386719 22.351562 7.628906 22.625 7.898438 C 22.894531 8.167969 23.136719 8.464844 23.347656 8.78125 C 23.5625 9.101562 23.742188 9.4375 23.886719 9.789062 C 24.035156 10.144531 24.144531 10.507812 24.21875 10.882812 C 24.292969 11.257812 24.332031 11.636719 24.332031 12.019531 Z M 24.332031 12.019531 " fill-opacity="1" fill-rule="nonzero"/><path fill="#4a9dff" d="M 18.5 12.851562 C 18.003906 12.851562 17.667969 12.519531 17.667969 12.019531 L 17.667969 8.691406 C 17.667969 8.191406 18.003906 7.855469 18.5 7.855469 C 19 7.855469 19.335938 8.191406 19.335938 8.691406 L 19.335938 12.019531 C 19.335938 12.519531 19 12.851562 18.5 12.851562 Z M 18.5 12.851562 " fill-opacity="1" fill-rule="nonzero"/><path fill="#4a9dff" d="M 18.5 12.851562 L 16.003906 12.851562 C 15.503906 12.851562 15.171875 12.519531 15.171875 12.019531 C 15.171875 11.519531 15.503906 11.1875 16.003906 11.1875 L 18.5 11.1875 C 19 11.1875 19.335938 11.519531 19.335938 12.019531 C 19.335938 12.519531 19 12.851562 18.5 12.851562 Z M 18.5 12.851562 " fill-opacity="1" fill-rule="nonzero"/><g clip-path="url(#27ee008d64)"><path fill="#f44336" d="M 18.5 37 C 11.839844 37 5.179688 35.25 5.179688 32.003906 C 5.179688 30.003906 7.84375 28.339844 12.507812 27.507812 C 12.921875 27.425781 13.421875 27.757812 13.507812 28.175781 C 13.589844 28.589844 13.257812 29.089844 12.839844 29.171875 C 8.425781 29.921875 6.84375 31.253906 6.84375 32.003906 C 6.84375 33.335938 11.425781 35.335938 18.5 35.335938 C 25.578125 35.335938 30.160156 33.335938 30.160156 32.003906 C 30.160156 31.253906 28.578125 29.921875 24.164062 29.171875 C 23.746094 29.089844 23.414062 28.671875 23.496094 28.175781 C 23.582031 27.757812 23.996094 27.425781 24.496094 27.507812 C 29.160156 28.339844 31.824219 30.003906 31.824219 32.003906 C 31.824219 35.25 25.164062 37 18.5 37 Z M 18.5 37 " fill-opacity="1" fill-rule="nonzero"/></g></svg>